<?xml version="1.0" encoding="UTF-8"?>
<svg xmlns="http://www.w3.org/2000/svg" xmlns:xlink="http://www.w3.org/1999/xlink" width="258" height="58.079998" viewBox="0 0 258 58.079998">
<defs>
<clipPath id="clip-0">
<path clip-rule="nonzero" d="M 0 0 L 258 0 L 258 57.332031 L 0 57.332031 Z M 0 0 "/>
</clipPath>
</defs>
<g clip-path="url(#clip-0)">
<path fill-rule="nonzero" fill="rgb(100%, 100%, 100%)" fill-opacity="1" d="M 0 0 L 258 0 L 258 57.332031 L 0 57.332031 Z M 0 0 "/>
</g>
<path fill="none" stroke-width="1" stroke-linecap="butt" stroke-linejoin="miter" stroke="rgb(0%, 0%, 0%)" stroke-opacity="1" stroke-miterlimit="10" d="M 7.997457 39.997824 L 321.629397 39.997824 " transform="matrix(0.716667, 0, 0, 0.716667, 0.358333, 0.358333)"/>
<path fill-rule="nonzero" fill="rgb(0%, 0%, 0%)" fill-opacity="1" stroke-width="1" stroke-linecap="butt" stroke-linejoin="miter" stroke="rgb(0%, 0%, 0%)" stroke-opacity="1" stroke-miterlimit="10" d="M 326.878307 39.997824 L 319.87976 42.330673 L 321.629397 39.997824 L 319.87976 37.670426 Z M 326.878307 39.997824 " transform="matrix(0.716667, 0, 0, 0.716667, 0.358333, 0.358333)"/>
<path fill-rule="nonzero" fill="rgb(0%, 0%, 0%)" fill-opacity="1" stroke-width="8.788838" stroke-linecap="butt" stroke-linejoin="miter" stroke="rgb(0%, 0%, 0%)" stroke-opacity="0.1679" stroke-miterlimit="4" d="M 69.06466 608.968083 C 69.06466 627.591527 75.072655 642.372039 87.088645 653.014007 C 99.104635 663.655975 113.69548 668.976959 130.861179 668.976959 C 146.310309 667.794518 159.756774 661.882314 170.914479 652.127176 C 182.358279 642.076428 188.080179 627.591527 188.080179 608.968083 C 188.080179 588.866587 182.358279 574.086076 170.914479 564.035328 C 159.756774 553.98458 145.738119 548.959206 128.858514 548.959206 C 112.265005 548.959206 98.24635 553.98458 87.088645 564.035328 C 75.644845 574.086076 69.63685 588.866587 69.06466 608.968083 Z M 247.015749 0.01101 C 237.002424 2.080282 202.384929 2.967112 142.877169 2.967112 C 135.724794 2.967112 123.422709 2.967112 105.970915 2.967112 C 88.805215 2.967112 71.92561 2.375892 55.90429 0.897841 L 33.874975 0.01101 L 25.864315 0.01101 L 25.864315 46.126206 L 41.885635 46.126206 C 60.767905 46.126206 77.07532 47.013037 91.093975 49.082308 C 97.10197 51.7428 100.53511 55.290123 101.965585 60.019887 C 103.39606 64.74965 103.96825 78.643331 103.96825 101.996539 L 103.96825 292.960747 C 103.96825 327.547144 103.39606 349.717911 101.965585 358.881829 C 100.53511 368.341356 95.95759 374.549171 87.94693 378.096493 C 78.79189 382.530647 63.056665 384.895529 41.02735 384.895529 L 29.869645 384.895529 L 29.869645 407.953127 C 29.869645 423.324859 30.72793 431.010724 31.87231 431.010724 L 41.885635 431.897555 C 48.751915 432.784386 57.906955 433.375606 69.922945 433.966827 C 81.938935 434.558047 93.954925 435.444878 105.970915 436.036098 C 117.414715 436.627319 129.430704 437.218539 142.018884 438.10537 C 154.607064 438.69659 164.334294 439.583421 170.914479 441.061472 C 177.780759 442.243913 181.213899 442.539523 182.072184 441.948303 L 184.933134 441.948303 L 184.933134 62.089158 C 188.366274 55.290123 192.371604 51.44719 196.949124 49.969139 C 201.526644 48.786698 213.256539 47.308647 232.138809 46.126206 L 255.026409 46.126206 L 255.026409 0.01101 Z M 247.015749 0.01101 " transform="matrix(0.0136537, 0, 0, -0.0132142, 223.599982, 14.187645)"/>
<path fill-rule="nonzero" fill="rgb(0%, 0%, 0%)" fill-opacity="1" stroke-width="8.788838" stroke-linecap="butt" stroke-linejoin="miter" stroke="rgb(0%, 0%, 0%)" stroke-opacity="0.1679" stroke-miterlimit="4" d="M 41.11213 46.126206 L 55.130785 46.126206 C 80.879335 46.126206 96.61456 50.560359 102.050364 60.019887 L 102.050364 68.001363 C 102.050364 73.913567 102.050364 81.599433 102.050364 91.058961 C 102.050364 100.222878 102.050364 110.569236 102.050364 122.098035 C 102.050364 133.331224 102.336459 146.338074 102.908649 161.118585 C 103.766934 175.603486 103.766934 189.792777 102.908649 203.095238 C 102.908649 223.787954 102.908649 245.663111 102.908649 269.016319 C 102.908649 292.369527 102.622554 311.879802 102.050364 328.138365 L 102.050364 350.900352 C 100.047699 363.611592 95.47018 371.888679 88.03171 376.027222 C 80.59324 379.870155 65.7163 383.121867 43.114795 384.895529 L 25.09081 384.895529 L 25.09081 407.953127 C 25.09081 423.324859 25.663 431.010724 27.093475 431.010724 L 37.1068 431.897555 C 43.686985 432.784386 53.12812 433.375606 64.858015 433.966827 C 76.874005 434.558047 89.462185 435.444878 102.050364 436.036098 C 113.208069 436.627319 125.224059 437.218539 138.098334 438.10537 C 150.686514 438.69659 160.413744 439.583421 166.993929 441.061472 C 173.574114 442.243913 177.293349 442.539523 177.865539 441.948303 L 181.012584 441.948303 L 181.012584 402.040922 C 181.012584 376.618442 181.298679 363.907202 181.870869 363.907202 C 182.729154 363.907202 184.445724 365.680864 187.020579 368.932576 C 189.595434 372.479899 193.600764 377.209663 199.036569 384.008698 C 204.472374 390.807733 210.766464 396.719938 217.918839 402.040922 C 225.357309 407.361906 235.084539 413.569721 247.100529 420.959977 C 259.116519 428.350232 271.704699 433.671217 284.865069 436.922929 C 298.311534 440.470252 315.191139 441.948303 336.076074 441.948303 C 411.891249 439.287811 454.233308 401.745312 463.102253 329.025195 C 463.674443 324.295432 463.960538 277.884626 463.960538 190.088388 L 463.960538 104.065811 C 463.960538 78.643331 464.532728 63.567209 465.963203 59.133056 C 467.393678 54.403292 471.112913 50.85597 477.120908 49.082308 C 491.139563 47.013037 507.446978 46.126206 526.043153 46.126206 L 542.064473 46.126206 L 542.064473 0.01101 L 534.053813 0.01101 L 510.021833 0.897841 C 494.572703 1.784671 477.979193 2.080282 459.955208 2.080282 C 441.931223 2.080282 429.343043 2.375892 421.904574 2.967112 C 353.241774 2.967112 316.049424 2.080282 310.041429 0.01101 L 302.030769 0.01101 L 302.030769 46.126206 L 318.052089 46.126206 C 358.677579 46.126206 378.990324 51.44719 378.990324 62.089158 C 379.562514 63.271599 380.134704 109.386795 380.134704 200.139135 C 379.276419 290.004645 378.704229 337.597892 378.132039 342.918876 C 374.126709 361.542321 367.260429 375.731612 358.105389 384.895529 C 348.664254 394.355056 340.653594 399.97165 334.073409 402.040922 C 327.207129 404.110194 318.624279 404.701414 308.038764 404.110194 C 277.998789 404.110194 251.678049 392.581395 229.076544 370.115017 C 211.052559 352.082793 199.608759 333.754959 195.031239 315.131515 C 190.453719 296.21246 187.592769 268.720709 187.020579 232.06504 L 187.020579 107.908744 C 187.020579 88.102858 187.306674 74.800398 187.878864 68.001363 C 188.737149 61.202328 189.595434 57.063784 191.025909 54.994513 C 192.456384 52.925241 195.317334 50.85597 199.894854 49.082308 C 213.913509 47.013037 230.220924 46.126206 249.103194 46.126206 L 265.124514 46.126206 L 265.124514 0.01101 L 257.113854 0.01101 L 233.940159 0.897841 C 217.918839 1.784671 201.039234 2.080282 183.015249 2.080282 C 164.991264 2.080282 152.403084 2.375892 144.964614 2.967112 C 76.301815 2.967112 39.109465 2.080282 33.10147 0.01101 L 25.09081 0.01101 L 25.09081 46.126206 Z M 41.11213 46.126206 " transform="matrix(0.0136537, 0, 0, -0.0132142, 227.395699, 14.187645)"/>
<path fill-rule="nonzero" fill="rgb(0%, 0%, 0%)" fill-opacity="1" stroke-width="8.788838" stroke-linecap="butt" stroke-linejoin="miter" stroke="rgb(0%, 0%, 0%)" stroke-opacity="0.1679" stroke-miterlimit="4" d="M 376.011784 494.862534 C 376.011784 505.800113 376.011784 519.102573 376.011784 535.065525 C 376.011784 551.028478 376.297879 561.966056 376.870069 567.878261 C 376.870069 598.030504 373.723024 616.653949 367.142839 624.044204 C 360.276559 631.43446 343.396954 635.573003 315.931834 637.051054 L 297.907849 637.051054 L 297.907849 660.108652 C 297.907849 675.480384 298.766134 682.87064 299.910514 682.87064 L 309.923839 684.053081 C 316.790119 684.644301 326.231254 685.235522 339.105529 686.122352 C 351.693709 686.713573 363.995794 687.304793 376.011784 687.896014 C 387.455584 688.782845 399.757669 689.374065 412.918039 689.965285 C 426.364504 690.556506 436.377829 691.738947 442.958014 692.921388 C 449.538199 694.399439 453.257434 694.695049 454.115719 694.103829 L 456.976669 694.103829 L 456.976669 389.920903 C 456.976669 185.949844 457.262764 83.077485 458.121049 81.008213 C 460.123714 67.705753 464.701234 59.133056 472.139704 54.994513 C 479.292079 50.85597 494.455113 47.899867 517.056618 46.126206 L 535.080603 46.126206 L 535.080603 0.01101 C 533.650128 0.01101 508.473768 -1.762651 458.979334 -5.014364 C 409.770994 -8.266076 383.450254 -10.335348 380.017114 -10.926568 L 372.864739 -10.926568 L 372.864739 44.056934 L 365.140174 36.962289 C 326.231254 5.036384 283.030909 -10.926568 234.966949 -10.926568 C 183.755944 -10.926568 137.408555 9.470537 95.92478 49.969139 C 54.7271 90.76335 34.12826 145.746853 34.12826 214.919647 C 34.12826 281.727559 55.013195 336.119841 97.06916 378.096493 C 139.125125 420.073146 188.047369 441.357083 244.121989 441.948303 C 293.902519 441.948303 337.961149 425.68974 376.011784 392.877005 Z M 372.864739 342.032045 C 343.110859 384.008698 305.346319 404.997024 259.857214 404.997024 C 227.242384 404.997024 198.346789 392.877005 172.884334 368.932576 C 154.86035 350.309132 143.702645 329.025195 139.125125 305.080767 C 134.26151 281.136338 131.686655 249.801654 131.114465 211.076714 C 131.114465 173.534215 133.403225 143.381971 137.980745 120.028763 C 142.558265 96.675555 154.28816 76.278449 172.884334 59.133056 C 192.910984 36.962289 218.945629 26.02471 250.988269 26.02471 C 298.193944 26.02471 339.105529 51.7428 372.864739 102.88337 Z M 372.864739 342.032045 " transform="matrix(0.0136537, 0, 0, -0.0132142, 234.987149, 14.187645)"/>
<path fill-rule="nonzero" fill="rgb(0%, 0%, 0%)" fill-opacity="1" stroke-width="8.788838" stroke-linecap="butt" stroke-linejoin="miter" stroke="rgb(0%, 0%, 0%)" stroke-opacity="0.1679" stroke-miterlimit="4" d="M 28.00373 217.875749 C 28.00373 254.531418 34.583915 287.935373 48.03038 318.087617 C 61.19075 347.94425 78.070355 372.479899 98.097005 391.103344 C 118.123654 409.726788 139.580779 423.620469 163.040569 433.079996 C 186.214264 442.243913 208.243579 447.269287 229.128514 447.860508 C 264.318199 447.860508 294.644269 441.948303 320.106724 430.123894 C 345.283084 418.003874 364.737544 401.449702 377.897914 379.870155 C 391.344379 358.586218 400.785514 337.302282 405.935224 316.018345 C 411.371029 294.734409 414.231979 271.08559 415.090264 245.07189 C 415.090264 240.342127 412.801504 235.612363 407.937889 230.882599 L 126.134314 230.882599 L 126.134314 216.102088 C 126.134314 117.368271 159.321334 57.359395 225.981469 36.075458 C 239.427934 31.936915 254.018779 29.867643 270.040099 29.867643 C 298.077409 29.867643 322.109389 40.805222 342.136039 62.089158 C 353.293744 73.322347 362.448784 87.216028 369.028969 104.065811 L 379.042294 128.010239 C 381.044959 130.079511 386.194669 130.966342 395.063614 130.966342 L 397.924564 130.966342 C 409.368364 130.966342 415.090264 127.714629 415.090264 120.915594 C 415.090264 118.255102 413.945884 114.116559 411.943219 107.908744 C 399.355039 71.253075 378.470104 42.283273 349.002319 20.999336 C 319.534534 -0.2846 286.633609 -10.926568 250.013449 -10.926568 C 186.786454 -10.926568 133.858879 12.131029 92.08901 57.950615 C 50.033045 104.065811 28.57592 157.275652 28.00373 217.875749 Z M 332.980999 274.928523 C 325.542529 360.35988 294.072079 405.588245 237.997459 410.909229 L 235.994794 410.909229 C 230.558989 410.909229 225.409279 410.613619 219.973474 410.022398 C 214.537669 409.431178 206.240914 406.770686 195.083209 402.040922 C 183.639409 397.311158 173.912179 390.216513 165.901519 381.052596 C 157.890859 371.593068 150.452389 357.994998 143.013919 339.962774 C 135.575449 321.93055 130.425739 300.055393 126.992599 274.041693 L 126.992599 266.947047 L 332.980999 266.947047 Z M 332.980999 274.928523 " transform="matrix(0.0136537, 0, 0, -0.0132142, 242.578583, 14.187645)"/>
<path fill-rule="nonzero" fill="rgb(0%, 0%, 0%)" fill-opacity="1" stroke-width="8.788838" stroke-linecap="butt" stroke-linejoin="miter" stroke="rgb(0%, 0%, 0%)" stroke-opacity="0.1679" stroke-miterlimit="4" d="M 201.109093 0.01101 C 193.098433 2.080282 159.911414 2.967112 102.120224 2.967112 C 51.195314 2.967112 22.871909 2.080282 16.863914 0.01101 L 11.142014 0.01101 L 11.142014 46.126206 L 24.874574 46.126206 C 40.323704 46.717426 54.342359 48.786698 66.930539 52.03841 C 79.804814 55.290123 89.245949 58.246225 96.112229 60.906717 C 102.692414 63.567209 110.989169 69.479414 121.002494 78.052111 C 131.015819 86.624807 137.023814 92.537012 139.026479 96.084335 C 141.029144 99.336047 147.895424 107.908744 159.911414 122.098035 C 171.927403 135.991716 178.793683 145.451243 179.938063 149.885396 L 225.999358 209.894273 L 167.922073 287.935373 C 161.914079 296.80368 155.619989 305.671987 149.039804 315.131515 C 142.459619 324.295432 137.023814 331.390077 133.018484 336.119841 C 129.013154 340.553994 125.293919 345.579368 121.860779 350.900352 C 118.713734 356.221336 115.566689 360.35988 112.991834 363.020372 C 110.416979 365.680864 108.414314 368.045746 106.983839 370.115017 C 105.553364 371.888679 103.264604 373.95795 100.117559 376.027222 C 96.684419 378.096493 94.681754 378.983324 94.109564 378.983324 C 93.251279 378.983324 91.248614 379.574545 88.101569 381.052596 C 84.668429 382.235037 82.093574 383.121867 80.090909 383.121867 C 76.085579 383.121867 64.069589 383.713088 44.042939 384.895529 L 16.005629 384.895529 L 16.005629 431.010724 L 22.871909 431.010724 C 46.903889 429.532673 81.235289 428.941453 125.866109 428.941453 C 187.948723 428.941453 222.280123 429.532673 228.860308 431.010724 L 236.870968 431.010724 L 236.870968 384.895529 C 213.125083 382.235037 201.109093 376.914053 201.109093 368.932576 C 201.109093 367.750135 204.256138 362.429151 211.122418 352.969624 C 217.702603 343.805707 226.857643 331.094467 238.873633 315.131515 C 250.889623 298.872952 260.616853 285.274881 268.055323 274.041693 L 272.060653 269.903149 L 296.950918 303.898326 C 318.408043 331.390077 328.993558 349.422301 328.993558 357.994998 C 328.993558 362.133541 328.421368 365.680864 326.990893 368.932576 C 325.560418 372.479899 324.129943 374.549171 322.127278 376.027222 C 320.124613 377.209663 318.408043 378.687714 316.977568 379.870155 C 315.547093 381.348206 313.258333 382.530647 310.111288 384.008698 L 306.964243 384.895529 L 302.100628 384.895529 L 302.100628 431.010724 L 308.966908 431.010724 C 318.980233 428.941453 351.881158 428.054622 407.955778 428.054622 C 460.597258 428.054622 488.920663 428.941453 492.925992 431.010724 L 498.933987 431.010724 L 498.933987 384.895529 L 492.067707 384.895529 C 459.452878 384.895529 432.273853 379.278934 411.102823 368.045746 C 399.659023 362.724762 388.215223 353.560844 377.057518 341.145215 C 365.613718 328.433975 343.870498 300.351003 312.113953 256.896299 L 296.092633 235.907973 L 357.889153 151.067837 C 401.947783 91.058961 425.693668 59.724276 429.126808 57.063784 C 432.273853 54.403292 437.995753 52.03841 446.006413 49.969139 C 458.022403 47.308647 475.760293 46.126206 498.933987 46.126206 L 516.099687 46.126206 L 516.099687 0.01101 L 502.081032 0.01101 C 496.645227 0.602231 490.065043 0.897841 482.054383 0.897841 C 474.043723 0.897841 465.746968 1.193451 456.878023 2.080282 C 448.295173 2.671502 439.998418 2.671502 431.987758 2.080282 C 423.977098 1.193451 417.969103 1.784671 413.963773 2.967112 C 406.525303 2.967112 394.223218 2.967112 377.057518 2.967112 C 359.605723 2.967112 343.012213 2.375892 326.990893 0.897841 L 304.103293 0.01101 L 294.948253 0.01101 L 294.948253 46.126206 L 298.095298 46.126206 C 305.247673 46.126206 312.686143 47.604257 320.124613 50.85597 C 327.276988 54.403292 330.996223 58.246225 330.996223 62.975989 C 330.996223 64.45404 317.549758 83.373095 290.942923 120.028763 L 250.031338 175.012266 C 249.459148 174.421045 238.873633 160.231754 219.133078 133.035613 C 199.106428 105.543862 187.662628 90.76335 185.087773 88.102858 C 182.226823 84.555536 181.082443 80.121382 181.082443 73.913567 C 181.082443 66.523312 183.371203 60.315497 187.948723 54.994513 C 192.526243 49.673529 198.534238 46.717426 205.972708 46.126206 C 207.403183 46.126206 207.975373 38.44034 207.975373 23.068608 L 207.975373 0.01101 Z M 201.109093 0.01101 " transform="matrix(0.0136537, 0, 0, -0.0132142, 248.640839, 14.187645)"/>
<path fill="none" stroke-width="1" stroke-linecap="butt" stroke-linejoin="miter" stroke="rgb(0%, 0%, 0%)" stroke-opacity="1" stroke-miterlimit="10" d="M 47.999279 45.001459 L 47.999279 34.999641 " transform="matrix(0.716667, 0, 0, 0.716667, 0.358333, 0.358333)"/>
<path fill="none" stroke-width="1" stroke-linecap="butt" stroke-linejoin="miter" stroke="rgb(100%, 39.99939%, 0%)" stroke-opacity="1" stroke-miterlimit="10" d="M 187.997478 45.001459 L 187.997478 34.999641 " transform="matrix(0.716667, 0, 0, 0.716667, 0.358333, 0.358333)"/>
<path fill="none" stroke-width="1" stroke-linecap="butt" stroke-linejoin="miter" stroke="rgb(100%, 39.99939%, 0%)" stroke-opacity="1" stroke-miterlimit="10" d="M 127.997471 45.001459 L 127.997471 34.999641 " transform="matrix(0.716667, 0, 0, 0.716667, 0.358333, 0.358333)"/>
<path fill="none" stroke-width="1" stroke-linecap="butt" stroke-linejoin="miter" stroke="rgb(0%, 0%, 0%)" stroke-opacity="1" stroke-miterlimit="10" d="M 268.00112 45.001459 L 268.00112 34.999641 " transform="matrix(0.716667, 0, 0, 0.716667, 0.358333, 0.358333)"/>
<path fill-rule="nonzero" fill="rgb(0%, 0%, 0%)" fill-opacity="1" stroke-width="8.867075" stroke-linecap="butt" stroke-linejoin="miter" stroke="rgb(0%, 0%, 0%)" stroke-opacity="0.1652" stroke-miterlimit="4" d="M 96.132297 584.875348 C 133.377943 639.140001 184.250044 665.983685 249.051412 665.983685 C 281.149286 665.983685 312.944349 657.324432 345.042223 640.005926 C 377.140097 622.68742 402.878958 592.091392 422.864426 547.929202 C 447.694857 492.798624 460.110072 416.597197 460.110072 319.902204 C 460.110072 216.568451 445.575186 137.769248 417.111034 82.927311 C 403.787388 54.92906 385.31597 32.703644 361.99959 15.962421 C 338.68321 -0.778802 318.394932 -10.881264 301.134754 -14.922248 C 283.571767 -18.963233 266.6144 -21.272367 249.959842 -22.138293 C 232.699665 -22.138293 215.439488 -20.1178 197.8765 -16.076815 C 180.616323 -12.035831 160.328044 -1.356085 137.011664 15.962421 C 113.695284 33.280927 95.223866 55.794985 81.900221 82.927311 C 53.436068 137.769248 38.901182 216.568451 38.901182 319.902204 C 38.901182 435.936195 57.97822 524.260577 96.132297 584.875348 Z M 321.120223 596.998302 C 301.134754 618.357793 277.212754 629.037539 249.959842 629.037539 C 222.101311 629.037539 197.8765 618.357793 177.891032 596.998302 C 161.236475 579.679796 150.33531 555.722529 144.884728 525.126502 C 139.736955 494.241833 137.011664 430.452002 137.011664 332.891084 C 137.011664 227.536838 139.736955 158.262813 144.884728 125.06901 C 150.33531 91.586564 162.447715 65.320163 180.919133 45.981165 C 199.693361 26.064883 222.706931 15.962421 249.959842 15.962421 C 276.607134 15.962421 299.317894 26.064883 318.092122 45.981165 C 337.47197 65.897447 349.281565 93.895699 354.126527 129.97592 C 358.668679 166.056141 361.39397 233.598315 361.99959 332.891084 C 361.99959 429.586076 359.274299 493.375907 354.126527 523.971935 C 348.675945 554.567962 337.77478 579.102513 321.120223 596.998302 Z M 321.120223 596.998302 " transform="matrix(0.0129, 0, 0, -0.0135332, 31.533331, 47.716023)"/>
<path fill-rule="nonzero" fill="rgb(0%, 0%, 0%)" fill-opacity="1" stroke-width="8.94618" stroke-linecap="butt" stroke-linejoin="miter" stroke="rgb(0%, 0%, 0%)" stroke-opacity="0.1668" stroke-miterlimit="4" d="M 20.965212 286.893631 C 21.553985 290.970666 22.73153 296.212569 23.909075 302.910555 C 25.381006 309.608542 29.208027 322.422081 35.978911 341.059956 C 42.749795 359.697831 49.226293 375.423539 55.997177 387.945861 C 62.768061 400.7594 73.660353 412.990506 88.968439 424.930395 C 104.276524 436.870284 119.58461 442.69462 134.892695 442.112186 C 159.032369 442.112186 179.050635 435.996633 194.947493 424.056744 C 211.138737 412.116856 220.853484 400.7594 224.974891 389.984379 C 229.096299 379.209357 230.862617 372.220154 230.862617 369.016769 C 230.862617 367.560685 231.451389 366.978251 232.040162 366.978251 L 242.932453 378.04449 C 283.557757 420.562143 330.070787 442.112186 381.882769 442.112186 C 418.092279 442.112186 446.942133 433.084465 469.021102 415.029024 C 491.100072 396.973582 502.28675 370.76407 502.875522 336.109271 C 503.758681 301.454471 491.100072 249.035447 464.899694 179.143415 C 438.993703 108.960166 426.335094 66.73373 426.923867 51.881673 C 426.923867 34.699882 432.811592 25.963378 443.99827 25.963378 C 448.119678 25.963378 451.06354 26.254595 453.124244 27.128245 C 472.259351 30.33163 489.62814 43.145169 504.936226 64.986429 C 520.244312 87.118906 532.019762 113.619635 539.968191 145.071049 C 541.440122 150.312952 547.91662 152.933903 559.986457 152.933903 C 573.233839 152.933903 580.004723 150.312952 580.004723 145.071049 C 580.004723 144.197399 578.532791 139.246713 575.883315 129.927776 C 570.584362 110.707467 563.224706 91.778375 554.098732 73.140499 C 544.678371 54.211407 529.370286 35.573532 507.880089 16.935657 C 486.684278 -1.702218 463.722149 -10.729939 438.993703 -9.856289 C 407.78876 -9.856289 385.121018 -1.119785 370.990477 16.935657 C 356.859936 34.991099 350.089052 53.628974 350.089052 73.140499 C 350.089052 85.662822 361.864503 125.559524 386.004176 193.121821 C 410.14385 260.392902 422.213687 311.064626 423.096845 345.136991 C 423.096845 384.451259 408.377532 403.962785 378.938906 403.962785 L 373.93434 403.962785 C 316.529019 403.962785 268.249672 370.472853 229.096299 302.910555 L 222.031029 290.970666 L 189.059767 157.010938 C 166.980798 69.645898 154.322189 22.759993 151.08394 16.062006 C 142.252352 -1.993435 128.121811 -11.021156 108.103546 -11.021156 C 99.271958 -11.021156 92.206687 -8.982638 86.907735 -4.905603 C 81.608782 -1.119785 78.076147 2.95725 76.015443 7.034286 C 73.954739 11.111321 73.365967 14.314706 73.954739 16.935657 C 73.954739 25.672161 86.613348 80.129703 111.930567 180.017065 C 137.247785 279.904428 150.789553 334.36197 151.967098 343.098474 C 152.555871 346.301859 153.144644 353.873495 153.144644 366.104601 C 153.144644 392.022896 144.901828 405.127652 129.00497 405.127652 C 103.687752 405.127652 82.786327 371.63772 66.00631 304.949073 C 61.884902 291.5531 60.118585 284.563897 60.118585 283.981463 C 58.646654 279.904428 52.464542 277.86591 40.983478 277.86591 L 26.852937 277.86591 C 23.025916 281.942946 20.965212 284.855114 20.965212 286.893631 Z M 20.965212 286.893631 " transform="matrix(0.0132691, 0, 0, -0.0134135, 177.733529, 47.633417)"/>
<path fill-rule="nonzero" fill="rgb(0%, 0%, 0%)" fill-opacity="1" stroke-width="8.94618" stroke-linecap="butt" stroke-linejoin="miter" stroke="rgb(0%, 0%, 0%)" stroke-opacity="0.1668" stroke-miterlimit="4" d="M 83.984967 237.095558 C 83.984967 237.095558 83.984967 241.46381 83.984967 249.909097 C 83.984967 258.645602 88.695147 265.343588 98.115507 270.003057 L 678.939601 270.003057 C 688.948734 264.761154 693.9533 258.063168 693.9533 249.909097 C 693.9533 242.046244 688.948734 235.348257 678.939601 230.106355 L 98.115507 230.106355 C 88.695147 234.765824 83.984967 241.46381 83.984967 249.909097 Z M 83.984967 237.095558 " transform="matrix(0.0132691, 0, 0, -0.0134135, 188.643405, 47.633417)"/>
<path fill-rule="nonzero" fill="rgb(0%, 0%, 0%)" fill-opacity="1" stroke-width="8.94618" stroke-linecap="butt" stroke-linejoin="miter" stroke="rgb(0%, 0%, 0%)" stroke-opacity="0.1668" stroke-miterlimit="4" d="M 213.050261 578.110432 L 200.097265 572.86853 C 190.676905 569.665145 177.429523 566.46176 160.060734 562.967158 C 142.691944 559.763774 123.262451 557.434039 102.06664 555.977955 L 82.931533 555.977955 L 82.931533 601.99021 L 102.06664 601.99021 C 133.271584 603.446294 162.415824 608.396979 188.910587 617.133483 C 215.699737 625.57877 234.246071 633.732841 245.138363 641.013261 C 255.736269 648.293681 264.862243 655.574101 273.105058 662.854521 C 274.282603 664.893039 278.404011 666.057906 284.880508 666.057906 C 291.06262 666.057906 296.655959 664.019388 301.954912 659.942353 L 301.954912 360.862699 L 303.132457 60.909394 C 307.548251 56.249925 311.669658 53.337757 314.907907 51.881673 C 318.440542 50.716806 326.388971 49.260722 339.047581 48.095855 C 351.70619 46.639771 372.313228 46.057337 400.868695 46.057337 L 427.069073 46.057337 L 427.069073 0.0450824 L 415.882395 0.0450824 C 402.046241 2.0836 349.056713 2.95725 256.913814 2.95725 C 166.242845 2.95725 114.136477 2.0836 100.005936 0.0450824 L 87.936099 0.0450824 L 87.936099 46.057337 L 114.136477 46.057337 C 128.561404 46.057337 141.220013 46.057337 152.112304 46.057337 C 162.71021 46.057337 170.953025 46.348554 177.135137 46.930987 C 183.022862 47.804638 188.321815 48.678288 193.031995 50.134372 C 197.742175 51.299239 200.391651 51.881673 200.980424 51.881673 C 201.569196 51.881673 203.6299 53.628974 206.868149 57.123575 C 210.400784 60.32696 212.461488 61.783044 213.050261 60.909394 Z M 213.050261 578.110432 " transform="matrix(0.0132691, 0, 0, -0.0134135, 201.915196, 47.633417)"/>
<path fill-rule="nonzero" fill="rgb(100%, 39.99939%, 0%)" fill-opacity="1" stroke-width="8.264585" stroke-linecap="butt" stroke-linejoin="miter" stroke="rgb(100%, 39.99939%, 0%)" stroke-opacity="0.1774" stroke-miterlimit="4" d="M 183.925206 599.915511 C 183.925206 615.97544 190.381914 630.063097 203.026299 641.896729 C 215.670684 654.012114 230.467305 660.210684 246.878102 661.055943 C 258.984428 661.055943 268.938519 657.111399 277.009403 648.940558 C 285.080287 641.05147 289.384758 630.908357 289.922817 619.074724 C 289.922817 603.578302 283.46611 589.772397 270.014636 577.093506 C 256.563163 564.414614 242.035572 557.652539 225.893804 557.089033 C 215.939713 557.089033 206.792711 560.47007 197.914739 566.950393 C 189.305796 573.712468 184.732295 584.700841 183.925206 599.915511 Z M 20.893348 286.887767 C 20.893348 292.241077 24.121702 302.665943 30.04035 317.880613 C 35.958999 333.377036 44.029883 350.282225 53.983973 368.877932 C 63.938063 387.755393 78.734684 404.660582 98.104806 419.875251 C 117.205898 435.371674 137.383108 442.697256 158.098377 442.13375 C 183.925206 442.13375 205.716593 434.244662 222.934479 419.029992 C 240.421395 403.533569 249.299367 382.965589 250.106456 357.0443 C 250.106456 345.774174 245.263925 326.896714 236.116923 300.975424 C 226.700892 275.054135 213.249419 240.116745 196.031533 195.881502 C 178.544617 151.928011 164.555085 114.454843 154.062935 82.898491 C 150.565552 68.247327 148.951375 57.540708 148.951375 51.060385 C 148.951375 34.43695 154.600994 25.984356 165.900232 25.984356 C 172.08791 25.984356 178.275588 27.111368 185.001324 29.08364 C 191.727061 31.055912 199.259886 35.563962 207.868829 42.889544 C 216.746802 50.215126 225.624774 62.048758 235.040805 78.108687 C 244.456837 93.886863 252.79675 113.609583 260.060546 136.995094 C 261.943752 144.884182 263.557929 149.673986 264.903077 151.082752 C 266.248224 152.209764 271.897843 153.055024 282.120963 153.055024 C 295.303406 153.055024 302.029143 149.673986 302.029143 142.91191 C 302.029143 137.558601 299.069819 127.415487 292.882141 111.919065 C 286.963493 96.704395 278.623579 79.799206 268.13143 60.921745 C 257.370251 42.326038 242.304601 25.702602 222.934479 11.051439 C 203.564358 -3.599725 183.118118 -10.925306 161.057702 -10.925306 C 139.535344 -10.925306 119.896193 -3.881478 101.871218 9.924426 C 84.115274 24.012084 74.699242 45.425322 73.892154 73.88239 C 73.892154 85.434269 75.77536 95.859135 79.003714 106.002249 C 82.232067 115.863609 96.759659 153.900283 122.048429 220.112272 C 147.337199 287.451274 162.133819 327.741973 165.900232 340.984371 C 169.935674 354.226769 172.356939 367.469167 172.894998 379.866305 C 172.894998 395.926234 167.245379 404.097075 155.946142 404.097075 L 154.062935 404.097075 C 133.885725 404.097075 115.591721 393.108703 98.911894 371.131957 C 82.232067 348.873459 69.587682 320.979898 60.978739 286.887767 C 60.44068 286.324261 59.633592 285.197248 59.095533 284.070236 C 58.288445 282.66147 58.019415 281.534457 58.019415 280.970951 C 58.019415 280.407445 57.212327 279.562185 55.867179 278.998679 C 54.791061 278.435173 53.714944 277.871667 52.907855 277.871667 C 52.369796 277.871667 51.024649 277.871667 48.872413 277.871667 C 46.989207 277.871667 44.298912 277.871667 41.070559 277.871667 L 27.081026 277.871667 C 23.045584 282.097964 20.893348 284.915495 20.893348 286.887767 Z M 20.893348 286.887767 " transform="matrix(0.0145198, 0, 0, -0.0138641, 88.153664, 47.864156)"/>
<path fill-rule="nonzero" fill="rgb(100%, 39.99939%, 0%)" fill-opacity="1" stroke-width="9.082114" stroke-linecap="butt" stroke-linejoin="miter" stroke="rgb(100%, 39.99939%, 0%)" stroke-opacity="0.1599" stroke-miterlimit="4" d="M 120.890649 647.114179 C 120.890649 653.618298 122.468289 661.304983 124.992514 669.878593 C 127.516739 678.747845 131.618605 682.886829 136.982583 682.886829 C 137.61364 682.886829 161.593777 684.660679 208.922996 687.912738 C 256.252216 691.460439 280.547882 693.23429 282.125522 694.121215 C 290.013725 694.121215 294.115591 691.460439 294.115591 686.138888 C 294.115591 681.40862 277.3926 611.637172 243.946619 477.120183 C 210.816165 344.968329 194.093174 276.675089 194.093174 271.944821 C 206.7143 278.744581 216.180143 284.953057 223.121762 290.865892 C 238.898169 302.987203 261.931722 323.977766 291.906894 354.133223 C 321.882066 383.993038 345.231148 404.392317 361.954139 415.035419 C 388.774029 433.069565 414.01628 441.938817 437.996417 441.938817 C 457.874689 441.938817 473.651096 435.730341 485.010108 423.017746 C 496.369121 410.305152 502.364155 392.271006 502.995212 368.915309 C 502.995212 352.359372 500.786515 338.464211 496.053593 326.934183 C 491.320671 315.699797 485.010108 307.421829 477.121905 302.100278 C 468.918174 296.778726 461.976555 292.935384 455.981521 290.865892 C 449.986486 289.092041 443.991452 287.909475 437.996417 287.909475 C 424.744236 287.909475 414.01628 291.752817 406.128076 299.14386 C 397.924345 306.239262 394.138008 315.995439 394.138008 328.11675 C 394.138008 344.672687 399.186458 358.272207 409.914414 368.915309 C 420.64237 379.558412 431.370327 386.653813 442.098283 389.905872 L 457.874689 392.86229 C 449.986486 401.140258 442.098283 404.983601 433.894552 404.983601 L 430.108214 404.983601 C 408.652301 402.914108 387.511917 394.63614 367.002589 379.854053 C 346.177732 365.367608 321.882066 344.081404 294.115591 315.995439 C 266.033588 287.909475 243.946619 267.805837 227.854684 255.093242 C 229.432325 254.206317 234.480775 253.319392 243.000034 252.136825 C 251.519294 250.658616 259.723025 248.589124 266.980172 245.928348 C 274.237319 243.267573 283.072107 240.606797 292.853479 237.946022 C 302.950379 235.285246 312.100694 230.554978 319.988898 224.05086 C 327.877101 217.2511 335.449776 211.338266 342.075866 206.016715 C 348.701957 200.695163 354.381463 192.121553 359.114385 180.000242 C 363.531779 167.878931 365.740476 156.940187 365.10942 146.888368 C 365.10942 135.653982 363.216251 122.054463 360.06097 106.089809 C 356.59016 90.125156 354.696992 76.525636 354.065935 65.882533 C 354.065935 39.274778 362.900723 25.9709 380.885826 25.9709 C 413.069695 25.9709 438.943002 65.586892 459.136802 145.114518 C 460.398914 150.436069 467.025005 153.096845 479.015074 153.096845 L 483.11694 153.096845 C 493.529368 153.096845 498.893346 150.140427 498.893346 143.931951 C 498.893346 140.679892 497.946762 135.949624 496.053593 130.036789 C 468.602646 36.022718 429.477158 -10.984317 378.046073 -10.984317 C 348.070901 -10.984317 323.775235 -2.410707 304.843547 15.032155 C 286.227388 32.475018 277.077072 57.308923 277.077072 90.125156 C 277.077072 101.950825 278.023656 112.298285 279.916825 120.871896 C 282.125522 129.741148 283.072107 137.723474 283.072107 145.114518 C 283.072107 159.600963 278.339185 172.313557 268.873341 182.956659 C 259.723025 193.599762 248.048484 201.286447 233.849719 206.016715 C 219.966481 210.746982 208.607468 214.294683 200.088209 216.955459 C 191.253421 219.616234 185.258387 220.798801 182.103106 219.911876 L 179.894409 219.911876 C 172.006206 192.121553 165.064587 164.922514 159.069552 138.906041 C 153.074518 112.889569 148.341596 93.672856 144.870787 80.960262 C 141.715505 68.247667 138.560224 56.126356 136.035999 44.005045 C 133.196246 31.883734 130.987549 23.901407 129.09438 20.058065 C 126.885683 15.919081 124.676986 11.780096 122.152761 7.049829 C 119.313008 2.319561 115.526671 -0.636856 111.109277 -2.115065 C 102.274489 -8.0279 93.124174 -10.984317 83.027273 -10.984317 C 71.668261 -10.984317 63.149001 -7.732258 57.153967 -0.932498 C 50.843404 5.57162 48.003651 11.188813 48.003651 15.919081 C 48.003651 22.718841 60.309248 75.934352 84.920442 175.861258 C 109.531636 276.083805 134.14283 374.23686 158.122968 470.911707 L 195.039759 616.071797 C 195.670815 624.645408 193.462118 629.966959 188.09814 632.036451 C 182.734162 634.105943 169.797509 635.584152 148.972652 637.062361 L 143.924202 637.062361 C 137.298111 637.062361 132.880718 637.062361 130.987549 637.062361 C 129.09438 637.062361 126.570155 637.949286 124.04593 640.018778 C 121.206177 642.08827 120.259593 644.453404 120.890649 647.114179 Z M 120.890649 647.114179 " transform="matrix(0.01238, 0, 0, -0.0132128, 131.866651, 47.870492)"/>
</svg>
