<?xml version="1.0" encoding="UTF-8"?>
<svg xmlns="http://www.w3.org/2000/svg" xmlns:xlink="http://www.w3.org/1999/xlink" width="273.12" height="275.04001" viewBox="0 0 273.12 275.04001">
<defs>
<clipPath id="clip-0">
<path clip-rule="nonzero" d="M 0 0 L 273 0 L 273 274.4375 L 0 274.4375 Z M 0 0 "/>
</clipPath>
</defs>
<g clip-path="url(#clip-0)">
<path fill-rule="nonzero" fill="rgb(100%, 100%, 100%)" fill-opacity="1" d="M 0 0 L 273 0 L 273 274.4375 L 0 274.4375 Z M 0 0 "/>
</g>
<path fill="none" stroke-width="1" stroke-linecap="butt" stroke-linejoin="miter" stroke="rgb(100%, 39.99939%, 0%)" stroke-opacity="1" stroke-miterlimit="10" d="M 126.998585 101.99801 C 140.330776 272.668533 153.668403 272.668533 167.000593 101.99801 " transform="matrix(0.718421, 0, 0, 0.718421, 0.35921, 0.35921)"/>
<path fill="none" stroke-width="1" stroke-linecap="butt" stroke-linejoin="miter" stroke="rgb(100%, 39.99939%, 0%)" stroke-opacity="1" stroke-miterlimit="10" d="M 126.998585 358.001075 C 140.330776 187.33599 153.668403 187.33599 167.000593 358.001075 " transform="matrix(0.718421, 0, 0, 0.718421, 0.35921, 0.35921)"/>
<path fill="none" stroke-width="1" stroke-linecap="butt" stroke-linejoin="miter" stroke="rgb(0%, 0%, 0%)" stroke-opacity="1" stroke-miterlimit="10" d="M 67.998749 325.997294 L 67.998749 51.371572 " transform="matrix(0.718421, 0, 0, 0.718421, 0.35921, 0.35921)"/>
<path fill-rule="nonzero" fill="rgb(0%, 0%, 0%)" fill-opacity="1" stroke-width="1" stroke-linecap="butt" stroke-linejoin="miter" stroke="rgb(0%, 0%, 0%)" stroke-opacity="1" stroke-miterlimit="10" d="M 67.998749 46.119168 L 70.331339 53.122374 L 67.998749 51.371572 L 65.671597 53.122374 Z M 67.998749 46.119168 " transform="matrix(0.718421, 0, 0, 0.718421, 0.35921, 0.35921)"/>
<path fill="none" stroke-width="1" stroke-linecap="butt" stroke-linejoin="miter" stroke="rgb(0%, 0%, 0%)" stroke-opacity="1" stroke-miterlimit="10" d="M 57.999607 314.997693 L 351.628593 314.997693 " transform="matrix(0.718421, 0, 0, 0.718421, 0.35921, 0.35921)"/>
<path fill-rule="nonzero" fill="rgb(0%, 0%, 0%)" fill-opacity="1" stroke-width="1" stroke-linecap="butt" stroke-linejoin="miter" stroke="rgb(0%, 0%, 0%)" stroke-opacity="1" stroke-miterlimit="10" d="M 356.880997 314.997693 L 349.877791 317.330283 L 351.628593 314.997693 L 349.877791 312.670541 Z M 356.880997 314.997693 " transform="matrix(0.718421, 0, 0, 0.718421, 0.35921, 0.35921)"/>
<path fill-rule="nonzero" fill="rgb(0%, 0%, 0%)" fill-opacity="1" stroke-width="5.567766" stroke-linecap="butt" stroke-linejoin="miter" stroke="rgb(0%, 0%, 0%)" stroke-opacity="0.2651" stroke-miterlimit="4" d="M 96.020516 584.972375 C 133.356446 639.053165 184.285555 665.999995 248.989084 665.999995 C 281.068986 665.999995 312.967644 657.39198 345.047546 639.988819 C 376.946204 622.585658 403.045107 592.083344 422.981769 547.920485 C 447.630732 492.716911 459.955214 416.741822 459.955214 319.99522 C 459.955214 216.69904 445.637066 137.729859 417.00077 83.087678 C 403.588834 55.018064 385.283354 32.749503 362.084329 15.907735 C 338.704062 -0.746903 318.404916 -11.039095 301.005647 -14.968841 C 283.606379 -19.085717 266.750838 -21.331286 250.076539 -22.079809 C 232.67727 -22.079809 215.278002 -20.021371 198.059976 -16.091625 C 180.660707 -11.974748 160.361561 -1.308295 136.981294 15.907735 C 113.601027 33.310895 95.295547 55.579456 82.064853 83.087678 C 53.247315 137.729859 38.929167 216.69904 38.929167 319.99522 C 38.929167 436.016291 57.959617 524.342009 96.020516 584.972375 Z M 320.942309 596.948744 C 301.005647 618.281651 277.262896 628.948104 250.076539 628.948104 C 221.98397 628.948104 198.059976 618.281651 177.942072 596.948744 C 161.267773 579.732714 150.39323 555.592846 144.955959 525.090532 C 139.69993 494.401088 136.981294 430.402368 136.981294 332.907242 C 136.981294 227.739755 139.69993 158.314243 144.955959 125.004968 C 150.39323 91.695693 162.355227 65.310255 181.023192 46.035787 C 199.691157 26.012796 222.708939 15.907735 250.076539 15.907735 C 276.719169 15.907735 299.374466 26.012796 318.042431 46.035787 C 337.254123 66.058778 349.397363 93.941262 353.928422 130.057498 C 358.640724 165.986604 361.35936 233.727939 362.084329 332.907242 C 362.084329 429.653845 359.365694 493.278303 353.928422 523.967748 C 348.672393 554.657192 337.616608 578.984191 320.942309 596.948744 Z M 320.942309 596.948744 " transform="matrix(0.0215526, 0, 0, -0.0208744, 32.328943, 243.082065)"/>
<path fill-rule="nonzero" fill="rgb(0%, 0%, 0%)" fill-opacity="1" stroke-width="5.965464" stroke-linecap="butt" stroke-linejoin="miter" stroke="rgb(0%, 0%, 0%)" stroke-opacity="0.2509" stroke-miterlimit="4" d="M 117.951181 -161.930755 C 119.316657 -161.930755 121.267336 -162.707508 123.998288 -164.066826 C 126.729239 -165.426144 130.240462 -166.397085 134.922093 -166.97965 C 139.603724 -167.756403 143.700151 -167.950591 147.016306 -167.950591 C 155.599296 -167.950591 163.597082 -163.678449 171.009664 -154.939977 C 178.422246 -146.395693 183.689081 -136.686279 187.005236 -126.005924 C 193.637547 -107.946414 204.951488 -57.069086 220.94706 27.014437 C 236.942632 110.903772 252.353 190.909341 266.983097 267.031145 C 281.613193 342.958761 289.025775 381.408039 289.025775 381.990604 L 289.025775 384.903428 L 242.014399 384.903428 C 210.608459 384.903428 194.027683 385.680182 192.077003 387.039499 C 189.346052 388.981382 187.980576 392.282583 187.980576 396.943102 L 195.003022 424.906213 C 196.368498 428.401602 198.904381 429.955108 203.000808 429.955108 C 207.097235 429.955108 222.702672 430.343485 250.012185 430.92605 C 282.003329 430.92605 297.998901 431.314426 297.998901 432.091179 C 297.998901 433.256309 300.92492 449.956501 306.972027 481.997566 C 313.019133 514.038632 316.920492 533.263271 319.06624 540.05986 C 343.644802 649.970424 392.41179 704.925706 464.977068 704.925706 C 489.750698 703.760577 510.037765 696.381422 526.033337 682.982431 C 542.028909 669.58344 550.026695 651.912307 550.026695 629.969032 C 550.026695 606.083874 543.004249 588.606929 528.959357 577.926574 C 514.914464 567.246219 501.064639 561.614759 487.019747 561.032194 C 457.759554 561.032194 442.93439 575.01375 442.93439 602.976862 C 442.93439 615.5991 446.640681 626.667831 454.053263 635.988868 C 461.270777 645.309906 469.268563 652.300684 478.046621 656.961202 L 487.019747 662.010097 C 476.291009 666.088051 466.342544 668.029934 456.979282 668.029934 C 448.981496 668.029934 441.373846 664.728733 433.961264 657.932144 C 426.74375 651.329742 421.671983 642.008705 418.941031 629.969032 C 414.259401 610.744393 408.992566 584.723164 402.945459 551.905345 C 397.093421 519.281715 391.631518 491.70698 386.949887 468.986952 C 382.268256 446.266923 379.927441 434.421439 379.927441 433.062121 C 379.927441 431.702803 398.263829 430.92605 434.936604 430.92605 C 464.977068 430.92605 482.338116 430.731861 487.019747 429.955108 C 491.701378 429.372543 495.407669 427.236472 497.943552 423.935272 C 498.723824 421.410824 497.943552 415.585176 495.992873 407.040892 C 494.042193 398.302419 492.286582 393.059336 490.921106 390.923265 C 489.750698 387.622064 486.629611 386.068558 481.94798 386.068558 C 477.266349 386.068558 459.320098 385.680182 427.914157 384.903428 L 371.929655 384.903428 L 348.911637 262.953192 C 316.920492 97.698969 294.682746 -5.609193 282.003329 -46.971296 C 264.057077 -103.674272 240.648923 -145.61894 211.973934 -172.999487 C 187.395372 -194.360197 163.011878 -205.040552 139.01852 -205.040552 C 117.756113 -205.040552 98.249318 -198.632339 81.083338 -186.010101 C 63.72229 -173.387863 54.944233 -155.328353 54.944233 -132.02576 C 54.944233 -107.363849 61.966679 -89.30434 76.011571 -78.04142 C 90.056464 -66.584312 103.906289 -60.952852 117.951181 -60.952852 C 147.406442 -60.952852 162.036538 -74.934407 162.036538 -103.091707 C 162.036538 -115.713945 158.330247 -126.588489 150.917665 -135.909526 C 143.700151 -145.424751 135.702365 -152.415529 126.924307 -157.076048 Z M 117.951181 -161.930755 " transform="matrix(0.0200251, 0, 0, -0.0201158, 2.888019, 41.668417)"/>
<path fill-rule="nonzero" fill="rgb(0%, 0%, 0%)" fill-opacity="1" stroke-width="5.965464" stroke-linecap="butt" stroke-linejoin="miter" stroke="rgb(0%, 0%, 0%)" stroke-opacity="0.2509" stroke-miterlimit="4" d="M 94.049464 249.942577 C 94.049464 295.965198 97.365619 339.65756 103.99793 381.019663 C 110.63024 422.381766 118.23789 457.91822 127.015948 488.017403 C 135.598938 517.922397 148.083287 547.244827 164.078859 575.984691 C 180.074431 604.724556 192.753848 627.056208 201.922042 642.979646 C 211.285303 658.903085 225.330196 676.38003 244.056719 695.022104 C 262.588175 713.664179 273.707048 724.927099 277.023203 729.005052 C 280.339358 733.083006 288.72728 740.073784 301.991901 749.977386 L 318.962813 749.977386 C 328.326075 749.977386 333.007705 747.064562 333.007705 741.044725 C 333.007705 738.908654 327.350735 731.917876 316.036794 720.072392 C 304.722852 708.032719 291.068096 690.361586 275.072524 667.058992 C 259.076952 643.756399 242.691244 615.016535 225.9154 581.033587 C 209.334624 547.050638 195.289731 501.028017 183.97579 442.965723 C 172.661849 384.903428 167.004878 320.627109 167.004878 249.942577 C 167.004878 179.258045 172.661849 115.370102 183.97579 58.084561 C 195.289731 0.604832 208.944488 -45.611978 224.94006 -80.954244 C 240.935632 -116.29651 257.32134 -145.036375 274.097184 -166.97965 C 290.67796 -188.922925 304.722852 -206.594058 316.036794 -219.993049 C 327.350735 -233.39204 333.007705 -240.382818 333.007705 -240.965383 C 333.007705 -246.985219 327.935939 -250.092232 317.987473 -250.092232 L 301.991901 -250.092232 L 274.097184 -226.012886 C 211.285303 -169.309909 165.639402 -98.625377 136.964413 -13.959289 C 108.289424 70.706799 94.049464 158.674088 94.049464 249.942577 Z M 94.049464 249.942577 " transform="matrix(0.0200251, 0, 0, -0.0201158, 13.901809, 41.668417)"/>
<path fill-rule="nonzero" fill="rgb(0%, 0%, 0%)" fill-opacity="1" stroke-width="5.965464" stroke-linecap="butt" stroke-linejoin="miter" stroke="rgb(0%, 0%, 0%)" stroke-opacity="0.2509" stroke-miterlimit="4" d="M 52.075319 288.97442 C 56.75695 316.937532 74.703201 349.366974 105.914074 386.068558 C 137.320014 422.575954 175.943468 441.412217 221.979505 441.994781 C 245.387659 441.994781 266.650066 435.974945 285.961793 423.935272 C 305.273521 412.089787 319.708549 396.943102 329.071811 379.07778 C 356.966528 421.022448 390.713284 441.994781 429.921942 441.994781 C 454.695572 441.994781 475.957979 434.615627 493.904231 420.051506 C 512.04555 405.293197 521.408812 385.680182 521.994016 361.018271 C 521.994016 341.599443 517.312385 326.064381 507.949123 314.024708 C 498.585861 301.985035 489.612736 294.60588 481.029746 292.081433 C 472.251688 289.362797 464.644038 288.003479 458.011727 288.003479 C 445.33231 288.003479 434.993709 291.693056 426.995923 299.072211 C 418.998137 306.257177 415.096778 315.966591 415.096778 328.006264 C 415.096778 358.688011 431.677554 379.660345 465.034174 390.923265 C 457.621591 399.661737 444.356971 403.933879 425.045243 403.933879 C 416.267186 403.933879 410.025011 403.351315 405.928584 401.991997 C 380.56975 391.311642 362.038295 369.368366 349.944082 335.967983 C 309.955152 188.579082 290.05822 102.747864 290.05822 78.085953 C 290.05822 59.249691 295.325055 46.044888 306.053793 38.083169 C 316.587462 29.927261 328.291539 26.043496 340.970956 26.043496 C 365.744586 26.043496 389.933012 36.918039 413.92637 59.055502 C 437.919728 80.998778 454.305436 107.990948 463.083494 140.032013 C 465.034174 146.634415 466.984853 150.323992 468.935533 150.906557 C 471.08128 151.68331 476.348115 152.265875 484.931105 153.042628 L 489.027532 153.042628 C 498.975997 153.042628 504.047764 150.323992 504.047764 145.080908 C 504.047764 144.304155 503.267492 140.614578 502.097085 134.012177 C 491.368347 95.951275 470.691144 62.356703 440.065476 33.034274 C 409.244739 3.711844 373.742372 -11.046465 332.97317 -11.046465 C 286.351929 -11.046465 251.04463 9.925869 227.051272 52.064725 C 199.741759 10.702622 168.335818 -10.075524 133.028519 -10.075524 L 126.981412 -10.075524 C 94.405064 -10.075524 70.99691 -1.337051 56.952018 15.945705 C 42.907125 33.42265 35.689611 51.676348 34.909339 71.095176 C 34.909339 92.261698 41.346581 109.738642 54.025998 122.943445 C 66.705415 136.342436 81.725647 142.944837 99.086695 142.944837 C 127.761684 142.944837 142.001645 128.963282 142.001645 101.00017 C 142.001645 87.601179 137.905218 75.949882 129.907432 66.04628 C 121.909646 55.94849 114.301996 49.346089 107.084481 46.044888 C 99.671899 42.743687 95.380404 40.995993 94.014928 40.995993 L 91.088909 40.025051 C 91.088909 39.248298 93.039589 38.083169 96.940948 35.947098 C 101.037375 34.005215 106.304209 31.674956 112.93652 28.95632 C 119.763898 26.237684 126.006073 25.266743 132.053179 26.043496 C 156.046537 26.043496 176.72374 40.995993 194.084788 71.095176 C 199.936827 81.581342 207.739545 104.301371 216.907738 139.061072 C 226.271 173.626585 235.634262 209.745604 244.997523 247.029753 C 254.360785 284.313902 259.62762 306.257177 260.993096 313.053767 C 264.309251 330.919088 266.064862 343.929702 266.064862 352.08561 C 266.064862 370.727684 260.993096 383.932487 251.04463 392.088395 C 241.096164 400.050114 229.587155 403.933879 216.907738 403.933879 C 190.378497 403.933879 165.409799 393.253524 142.001645 372.087002 C 118.59349 350.726292 102.40285 323.345745 93.039589 289.945362 C 91.674113 283.925525 89.918501 280.624325 87.967822 280.04176 C 86.017142 279.265007 80.750308 278.682442 71.97225 277.905689 L 57.927357 277.905689 C 54.025998 281.983643 52.075319 285.67322 52.075319 288.97442 Z M 52.075319 288.97442 " transform="matrix(0.0200251, 0, 0, -0.0201158, 21.691563, 41.668417)"/>
<path fill-rule="nonzero" fill="rgb(0%, 0%, 0%)" fill-opacity="1" stroke-width="5.965464" stroke-linecap="butt" stroke-linejoin="miter" stroke="rgb(0%, 0%, 0%)" stroke-opacity="0.2509" stroke-miterlimit="4" d="M 60.012175 749.006445 L 63.913534 749.977386 C 67.424757 749.977386 70.740912 749.977386 74.057068 749.977386 L 85.956213 749.977386 L 114.045998 726.092228 C 176.66281 669.389252 222.308711 598.70472 250.9837 514.038632 C 279.658689 429.372543 294.093718 341.405255 294.093718 249.942577 C 294.093718 204.696709 290.582495 161.004347 283.950184 119.05968 C 277.317874 76.920824 269.710224 41.384369 260.932166 12.06194 C 252.349176 -17.26049 240.059895 -46.582919 224.064323 -75.905349 C 208.068751 -105.421967 195.389334 -127.753618 186.026072 -143.094492 C 176.66281 -158.241178 163.008054 -175.329746 145.061802 -193.97182 C 126.920483 -212.613895 116.386813 -223.682626 113.070658 -226.983827 C 109.754503 -230.285028 101.951785 -236.693241 90.05264 -246.014278 C 87.906892 -247.956161 86.736484 -249.315479 85.956213 -250.092232 L 74.057068 -250.092232 C 68.595165 -250.092232 65.083942 -250.092232 62.938194 -250.092232 C 60.987515 -250.092232 59.426971 -248.927102 58.061496 -246.985219 C 56.69602 -245.043337 55.72068 -241.936324 54.940408 -238.052559 C 55.72068 -237.275806 59.426971 -233.003664 66.059282 -225.041944 C 169.250228 -117.655828 220.943236 40.607616 220.943236 249.942577 C 220.943236 459.277538 169.250228 617.735171 66.059282 724.927099 C 59.426971 733.083006 55.72068 737.355148 54.940408 737.937713 C 54.940408 743.374985 56.69602 747.064562 60.012175 749.006445 Z M 60.012175 749.006445 " transform="matrix(0.0200251, 0, 0, -0.0201158, 33.145908, 41.668417)"/>
<path fill-rule="nonzero" fill="rgb(0%, 0%, 0%)" fill-opacity="1" stroke-width="5.620169" stroke-linecap="butt" stroke-linejoin="miter" stroke="rgb(0%, 0%, 0%)" stroke-opacity="0.252" stroke-miterlimit="4" d="M 51.967887 289.003175 C 56.72454 316.923408 74.653464 349.360149 105.937606 385.902807 C 137.404697 422.650761 176.006767 441.332681 221.926766 441.948569 C 245.344136 441.948569 266.749075 435.99499 285.958636 424.087832 C 305.351146 411.975378 319.621105 396.988782 328.951464 378.922749 C 356.942538 421.008394 390.605007 441.948569 429.938871 441.948569 C 454.636878 441.948569 476.041817 434.763215 493.970741 419.981915 C 512.082613 405.405911 521.412971 385.697511 521.961816 361.062011 C 521.961816 341.764203 517.388111 325.956424 508.057753 314.049266 C 498.727394 301.936812 489.579984 294.751458 480.981419 292.082612 C 472.382853 289.413766 464.699029 287.976696 457.929945 287.976696 C 445.30652 287.976696 435.06142 291.672021 427.011699 299.062671 C 418.961979 306.248025 414.937118 316.102225 414.937118 328.009383 C 414.937118 358.598462 431.585405 379.743932 465.064925 391.035203 C 457.746997 399.657628 444.391779 403.96884 424.999269 403.96884 C 416.400704 403.96884 409.997517 403.352953 405.972656 401.915882 C 380.725805 391.240499 362.065088 369.273845 349.990507 336.01592 C 309.924851 188.613514 289.983497 102.59456 289.983497 77.959061 C 289.983497 59.27714 295.288995 45.932911 306.082938 37.926374 C 316.693934 29.919836 328.402619 26.019215 341.026045 26.019215 C 365.724052 26.019215 390.056163 36.899895 414.022377 59.071844 C 437.988592 81.038498 454.270981 107.932252 463.052495 139.958402 C 465.064925 146.733164 467.077356 150.428489 469.089786 151.044376 C 470.919268 151.660264 476.407714 152.276151 485.006279 153.097335 L 489.03114 153.097335 C 498.910343 153.097335 504.032892 150.428489 504.032892 145.090797 C 504.032892 144.269614 503.301099 140.574289 502.020462 134.004823 C 491.409466 96.025094 470.73632 62.356578 440.001022 32.999274 C 409.265724 3.64197 373.590825 -10.934034 332.976324 -10.934034 C 286.324533 -10.934034 251.01553 10.006141 227.049315 52.091786 C 199.607085 10.622028 168.322943 -9.907555 133.01394 -9.907555 L 126.976649 -9.907555 C 94.41187 -9.907555 70.9945 -1.28513 57.090436 15.95972 C 43.003425 33.409865 35.685497 51.681194 34.953704 70.979002 C 34.953704 92.329769 41.356891 109.574619 53.980317 122.918848 C 66.603743 136.263077 81.605495 143.037839 98.985575 143.037839 C 127.708442 143.037839 141.978402 129.077723 141.978402 100.952194 C 141.978402 87.607965 137.953541 75.906102 130.086769 66.051902 C 122.037048 55.992407 114.353223 49.42294 107.035295 45.932911 C 99.717367 42.648178 95.326611 41.005811 94.045973 41.005811 L 90.935854 39.979332 C 90.935854 39.363444 92.948284 37.926374 96.973144 36.078711 C 100.998005 34.025753 106.303503 31.767499 113.072586 29.098653 C 119.658721 26.429807 126.061908 25.403328 131.916251 26.019215 C 156.065413 26.019215 176.73856 41.005811 193.935691 70.979002 C 199.972982 81.654386 207.656806 104.236927 216.987164 138.931922 C 226.317523 173.626918 235.647881 209.758984 244.978239 246.91753 C 254.308597 284.281371 259.614095 306.248025 261.077681 313.022787 C 264.370749 331.08882 266.017282 344.022458 266.017282 352.028995 C 266.017282 370.710916 261.077681 384.055145 251.01553 392.061682 C 240.953379 400.068219 229.61059 403.96884 216.987164 403.96884 C 190.276727 403.96884 165.395772 393.293457 141.978402 371.942691 C 118.74398 350.591924 102.278642 323.287579 92.948284 290.029654 C 91.667646 284.076075 90.021113 280.586046 88.008682 279.970158 C 85.996252 279.354271 80.690754 278.738383 71.909241 277.9172 L 58.005177 277.9172 C 53.980317 282.023117 51.967887 285.718442 51.967887 289.003175 Z M 51.967887 289.003175 " transform="matrix(0.0213517, 0, 0, -0.0190274, 247.855242, 242.616172)"/>
<path fill="none" stroke-width="2" stroke-linecap="butt" stroke-linejoin="miter" stroke="rgb(0%, 0%, 0%)" stroke-opacity="1" stroke-miterlimit="10" d="M 108.000529 114.998297 C 114.666624 201.668409 144.664052 248.331075 197.998251 255.002608 C 251.332449 261.668703 301.3336 215.000599 348.001704 114.998297 " transform="matrix(0.718421, 0, 0, 0.718421, 0, 0)"/>
<path fill-rule="nonzero" fill="rgb(0%, 0%, 0%)" fill-opacity="1" d="M 108.839844 165.597656 C 108.839844 165.976562 108.769531 166.34375 108.621094 166.695312 C 108.476562 167.046875 108.269531 167.359375 108 167.628906 C 107.730469 167.898438 107.417969 168.105469 107.066406 168.25 C 106.714844 168.398438 106.347656 168.46875 105.96875 168.46875 C 105.585938 168.46875 105.21875 168.398438 104.867188 168.25 C 104.515625 168.105469 104.203125 167.898438 103.933594 167.628906 C 103.664062 167.359375 103.457031 167.046875 103.3125 166.695312 C 103.167969 166.34375 103.09375 165.976562 103.09375 165.597656 C 103.09375 165.214844 103.167969 164.847656 103.3125 164.496094 C 103.457031 164.144531 103.664062 163.832031 103.933594 163.5625 C 104.203125 163.292969 104.515625 163.085938 104.867188 162.941406 C 105.21875 162.796875 105.585938 162.722656 105.96875 162.722656 C 106.347656 162.722656 106.714844 162.796875 107.066406 162.941406 C 107.417969 163.085938 107.730469 163.292969 108 163.5625 C 108.269531 163.832031 108.476562 164.144531 108.621094 164.496094 C 108.769531 164.847656 108.839844 165.214844 108.839844 165.597656 Z M 108.839844 165.597656 "/>
<path fill-rule="nonzero" fill="rgb(0%, 0%, 0%)" fill-opacity="1" d="M 207.984375 155.539062 C 207.984375 155.917969 207.910156 156.285156 207.765625 156.636719 C 207.617188 156.988281 207.410156 157.300781 207.140625 157.570312 C 206.871094 157.839844 206.5625 158.046875 206.207031 158.191406 C 205.855469 158.339844 205.492188 158.410156 205.109375 158.410156 C 204.726562 158.410156 204.363281 158.339844 204.007812 158.191406 C 203.65625 158.046875 203.347656 157.839844 203.078125 157.570312 C 202.808594 157.300781 202.601562 156.988281 202.453125 156.636719 C 202.308594 156.285156 202.234375 155.917969 202.234375 155.539062 C 202.234375 155.15625 202.308594 154.789062 202.453125 154.4375 C 202.601562 154.085938 202.808594 153.777344 203.078125 153.507812 C 203.347656 153.238281 203.65625 153.027344 204.007812 152.882812 C 204.363281 152.738281 204.726562 152.664062 205.109375 152.664062 C 205.492188 152.664062 205.855469 152.738281 206.207031 152.882812 C 206.5625 153.027344 206.871094 153.238281 207.140625 153.507812 C 207.410156 153.777344 207.617188 154.085938 207.765625 154.4375 C 207.910156 154.789062 207.984375 155.15625 207.984375 155.539062 Z M 207.984375 155.539062 "/>
<path fill-rule="nonzero" fill="rgb(100%, 39.99939%, 0%)" fill-opacity="1" stroke-width="5.911952" stroke-linecap="butt" stroke-linejoin="miter" stroke="rgb(100%, 39.99939%, 0%)" stroke-opacity="0.2526" stroke-miterlimit="4" d="M 92.000187 210.010519 C 92.000187 187.290491 96.6189 167.09491 106.048771 149.0354 C 115.286196 130.975891 127.410316 117.382711 142.036239 108.061674 C 156.662162 98.740637 171.095638 90.973106 184.951776 84.953269 C 199.00036 78.933433 210.739587 74.661291 219.977012 71.942655 L 234.987828 70.000772 L 236.912291 70.971714 L 249.998643 111.94544 C 261.930317 150.588906 273.092206 183.600913 282.90697 210.98146 C 292.91418 238.362007 306.000532 267.684437 321.973579 298.948749 C 337.946627 330.407249 353.919674 355.651725 370.085168 375.070553 C 386.058215 394.295192 405.687743 410.412819 428.973752 423.035057 C 452.25976 435.657295 476.700447 442.065508 501.910919 442.065508 C 531.93255 442.065508 558.682593 431.385153 581.968602 410.024442 C 605.254611 388.663732 617.378731 352.738901 617.95607 302.055761 C 617.95607 250.013303 603.71504 199.912728 575.040533 151.948224 C 546.366027 103.98372 506.914525 64.951877 457.070919 35.046883 C 407.034867 4.9477 354.304567 -10.004797 299.072463 -10.004797 C 281.752291 -10.004797 273.092206 -10.587362 273.092206 -11.94668 L 265.971691 -48.065699 C 261.930317 -71.368292 257.311605 -97.001145 251.923107 -124.964256 C 246.727055 -152.927368 243.070575 -170.986877 240.953665 -178.948597 C 237.682077 -195.066224 229.021991 -205.940767 214.973407 -211.960604 C 207.660446 -216.038557 199.385252 -217.98044 189.955381 -217.98044 C 169.363621 -216.038557 158.971518 -204.969826 158.971518 -184.968433 C 158.971518 -178.366032 177.253922 -117.390913 214.011175 -2.043078 L 209.00757 0.0929931 C 205.735982 1.258123 200.924823 3.005817 194.958986 4.9477 C 188.993149 7.083771 181.680188 9.996595 173.020102 14.074549 C 164.360016 17.958314 155.69993 22.618833 147.039844 28.056105 C 138.379758 33.299188 129.33478 39.319025 119.904909 45.921426 C 110.667484 52.718016 102.007398 61.068112 93.924651 70.971714 C 86.03435 81.069504 78.336496 91.749859 71.023535 103.012779 C 63.710573 114.275699 58.706968 127.286313 56.012719 142.044622 C 53.31847 156.608743 51.394007 172.72637 50.046882 190.009126 C 50.046882 222.050192 58.706968 262.247165 76.02714 310.988422 C 93.347312 359.729679 117.595552 399.732464 148.964308 430.996776 L 162.05066 430.996776 C 175.906797 430.996776 183.027312 428.27814 183.027312 423.035057 C 183.027312 418.957103 180.333063 414.296584 174.944566 409.053501 C 147.617183 377.012436 127.410316 340.699228 113.939072 299.91969 C 100.660273 259.334341 93.347312 229.429346 92.000187 210.010519 Z M 574.078302 277.976415 C 574.078302 305.939527 565.995555 328.07699 550.022508 344.000429 C 534.04946 359.923867 512.687915 368.273963 485.937872 369.050716 C 453.414438 369.050716 422.623022 355.651725 393.948515 329.047932 C 365.274009 302.24995 341.603107 265.354177 322.935811 217.972238 C 313.698386 195.25221 304.268515 158.939002 295.03109 109.032616 L 285.986111 63.980936 C 297.917785 62.621618 304.653407 62.039053 306.000532 62.039053 C 383.941305 62.039053 448.02594 84.953269 498.061992 130.975891 C 547.905598 176.998512 573.308516 225.933957 574.078302 277.976415 Z M 574.078302 277.976415 " transform="matrix(0.0202979, 0, 0, -0.0201158, 129.331811, 217.681558)"/>
<path fill-rule="nonzero" fill="rgb(100%, 39.99939%, 0%)" fill-opacity="1" stroke-width="8.362026" stroke-linecap="butt" stroke-linejoin="miter" stroke="rgb(100%, 39.99939%, 0%)" stroke-opacity="0.1786" stroke-miterlimit="4" d="M 212.923803 577.875304 L 200.130339 572.931331 C 190.603291 569.635349 177.265424 566.339367 160.116738 563.043385 C 142.69585 559.747404 123.369553 557.275417 101.865645 555.902091 L 83.083751 555.902091 L 83.083751 602.045838 L 101.865645 602.045838 C 133.441004 603.419164 162.294349 608.363137 188.970083 616.877757 C 215.645817 625.667042 234.427711 633.632331 245.043564 641.048291 C 255.659418 648.46425 264.914264 655.605544 273.080305 663.021503 C 274.441312 664.944159 278.252131 666.04282 285.057166 666.04282 C 291.045596 666.04282 296.761824 664.120164 301.93365 660.000187 L 301.93365 360.889828 L 303.022456 60.955475 C 307.649879 56.286167 311.7329 53.26485 314.999316 51.891525 C 318.265732 50.792864 326.431773 49.419538 338.953036 48.046212 C 351.746501 46.672887 372.433805 46.123556 401.014948 46.123556 L 426.874078 46.123556 L 426.874078 -0.0201904 L 415.986023 -0.0201904 C 402.103754 1.902466 349.024487 3.001126 257.020425 3.001126 C 166.377369 3.001126 114.114706 1.902466 99.960235 -0.0201904 L 87.983375 -0.0201904 L 87.983375 46.123556 L 114.114706 46.123556 C 128.541379 46.123556 141.334843 46.123556 151.950697 46.123556 C 162.56655 46.123556 171.004792 46.398221 176.993222 46.947552 C 182.981653 47.771547 188.42568 48.595543 193.053103 49.968868 C 197.680526 51.342194 200.40254 51.891525 200.946943 51.891525 C 201.763547 51.891525 203.668957 53.539516 206.935373 57.110163 C 210.201789 60.406145 212.3794 61.77947 212.923803 60.955475 Z M 212.923803 577.875304 " transform="matrix(0.0143506, 0, 0, -0.0142219, 143.276449, 220.698932)"/>
<path fill-rule="nonzero" fill="rgb(100%, 39.99939%, 0%)" fill-opacity="1" stroke-width="5.911952" stroke-linecap="butt" stroke-linejoin="miter" stroke="rgb(100%, 39.99939%, 0%)" stroke-opacity="0.2526" stroke-miterlimit="4" d="M 93.918171 250.013303 C 93.918171 296.035925 97.382205 339.728287 103.925381 381.090389 C 110.661004 422.258304 118.358858 457.988946 127.018944 488.088129 C 135.67903 517.993123 147.995596 547.315553 163.968644 576.055418 C 179.941691 604.601094 192.64315 626.932746 202.073021 643.050373 C 211.310446 658.973811 225.35903 676.256568 244.026326 695.09283 C 262.693623 713.734905 273.663065 724.997825 276.934653 729.075779 C 280.398687 732.959544 288.67388 739.950322 301.952679 750.048112 L 319.080404 750.048112 C 328.317829 750.048112 332.936541 746.9411 332.936541 740.921263 C 332.936541 738.979381 327.355597 731.988603 316.001262 719.94893 C 304.646928 707.909257 290.983237 690.238124 275.010189 666.935531 C 259.037142 643.632938 242.679202 615.087261 225.936369 580.910125 C 209.385983 546.927176 195.337399 500.904555 183.983064 443.036449 C 172.628729 384.974155 167.047785 320.697836 167.047785 250.013303 C 167.047785 179.328771 172.628729 115.24664 183.983064 57.961099 C 195.337399 0.675558 209.00109 -45.73544 224.974137 -81.077706 C 240.947185 -116.419972 257.305125 -144.965649 274.047957 -166.908924 C 290.598344 -189.046387 304.646928 -206.71752 316.001262 -219.922323 C 327.355597 -233.321314 332.936541 -240.312092 332.936541 -241.088845 C 332.936541 -246.914493 327.932936 -250.021505 317.925726 -250.021505 L 301.952679 -250.021505 L 274.047957 -225.942159 C 211.310446 -169.239183 165.700661 -98.748839 137.026154 -14.082751 C 108.351648 70.583337 93.918171 158.744814 93.918171 250.013303 Z M 93.918171 250.013303 " transform="matrix(0.0202979, 0, 0, -0.0201158, 151.468662, 217.681558)"/>
<path fill-rule="nonzero" fill="rgb(100%, 39.99939%, 0%)" fill-opacity="1" stroke-width="5.911952" stroke-linecap="butt" stroke-linejoin="miter" stroke="rgb(100%, 39.99939%, 0%)" stroke-opacity="0.2526" stroke-miterlimit="4" d="M 52.091235 289.045147 C 56.709948 317.008258 74.607459 349.243512 105.976214 385.945096 C 137.34497 422.64668 176.026687 441.288755 222.021365 442.065508 C 245.307374 442.065508 266.668919 436.045671 285.913554 424.005998 C 305.350636 411.966325 319.591666 397.013828 329.021537 378.954318 C 356.926259 421.093174 390.60437 442.065508 430.055873 442.065508 C 454.689006 442.065508 476.050551 434.686353 493.948062 419.928044 C 512.038019 405.363924 521.275444 385.750908 522.04523 361.088997 C 522.04523 341.670169 517.426517 325.940919 507.996646 314.095434 C 498.759221 302.055761 489.714242 294.676607 481.054156 291.957971 C 472.39407 289.239335 464.696216 288.074205 457.960594 288.074205 C 445.259135 288.074205 435.059478 291.569594 426.976731 298.948749 C 419.086431 306.327903 415.045057 316.037317 415.045057 328.07699 C 415.045057 358.758738 431.595444 379.731071 465.081109 390.993991 C 457.575701 399.732464 444.296903 404.004606 425.052268 404.004606 C 416.392182 404.004606 410.041452 403.422041 406.000079 402.062723 C 380.59716 391.382368 361.929864 369.244904 349.99819 336.038709 C 309.969349 188.649808 289.954928 102.624402 289.954928 77.962492 C 289.954928 59.320417 295.343426 45.921426 305.927975 37.959707 C 316.704971 29.997988 328.251752 25.920034 340.953211 25.920034 C 365.586345 25.920034 390.027031 36.988765 414.082826 58.932041 C 437.946173 81.069504 454.304113 108.061674 462.964199 139.908551 C 465.081109 146.705141 467.005573 150.394718 468.930036 150.977283 C 471.046946 151.754036 476.242998 152.336601 485.09553 152.919166 L 488.944457 152.919166 C 498.951667 152.919166 503.955272 150.394718 503.955272 144.957447 C 503.955272 144.374882 503.377933 140.685304 502.030809 134.082903 C 491.253813 96.022001 470.662053 62.42743 440.063083 32.910812 C 409.271667 3.588382 373.669091 -10.975739 333.062911 -10.975739 C 286.298447 -10.975739 251.080765 9.996595 227.02497 51.941263 C 199.697588 10.57916 168.328833 -10.004797 132.918704 -10.004797 L 126.952867 -10.004797 C 94.429433 -10.004797 70.950978 -1.266325 57.094841 16.016432 C 43.046257 33.299188 35.733295 51.747074 34.96351 70.971714 C 34.96351 92.332424 41.31424 109.61518 54.015699 123.014171 C 66.717158 136.413162 81.727974 143.015564 99.048146 143.015564 C 127.722652 143.015564 141.963682 129.034008 141.963682 101.070896 C 141.963682 87.671905 137.922309 76.020609 130.032008 65.922818 C 121.949262 56.019216 114.251408 49.416815 106.938446 45.921426 C 99.625485 42.620225 95.391665 41.066719 94.04454 41.066719 L 90.965399 40.095778 C 90.965399 39.319025 93.082309 37.959707 96.931236 36.017824 C 100.972609 34.075941 106.361107 31.745682 112.904283 29.027046 C 119.639905 26.30841 125.990635 25.337469 131.956472 25.920034 C 156.012266 25.920034 176.604026 41.066719 193.924198 70.971714 C 200.082481 81.652069 207.587889 104.372097 217.01776 138.93761 C 226.255185 173.697311 235.685056 209.622142 244.922481 246.906291 C 254.352353 284.384628 259.74085 306.327903 261.087975 312.930305 C 264.359563 330.989814 266.09158 344.000429 266.09158 351.962148 C 266.09158 370.604222 261.087975 384.003213 251.080765 391.964933 C 241.073554 399.926652 229.719219 404.004606 217.01776 404.004606 C 190.267717 404.004606 165.249691 393.324251 141.963682 371.96354 C 118.677674 350.60283 102.319734 323.416472 93.082309 290.016088 C 91.735184 283.996252 90.003167 280.695051 88.078703 279.918298 C 85.961794 279.335733 80.573296 278.753168 71.91321 277.976415 L 58.057072 277.976415 C 54.015699 282.054369 52.091235 285.743946 52.091235 289.045147 Z M 52.091235 289.045147 " transform="matrix(0.0202979, 0, 0, -0.0201158, 159.364534, 217.681558)"/>
<path fill-rule="nonzero" fill="rgb(100%, 39.99939%, 0%)" fill-opacity="1" stroke-width="5.911952" stroke-linecap="butt" stroke-linejoin="miter" stroke="rgb(100%, 39.99939%, 0%)" stroke-opacity="0.2526" stroke-miterlimit="4" d="M 59.931968 749.077171 L 63.973342 750.048112 C 67.24493 750.048112 70.708964 750.048112 73.980552 750.048112 L 85.912226 750.048112 L 114.009394 725.968766 C 176.746905 669.26579 222.35669 598.581258 251.031197 513.91517 C 279.705704 429.249082 293.946734 341.281793 293.946734 250.013303 C 293.946734 204.573247 290.675146 161.075073 283.939523 118.936218 C 277.396347 76.99155 269.698493 41.260907 261.038407 11.938478 C 252.378321 -17.383952 240.061755 -46.706381 224.088707 -76.028811 C 207.923214 -105.35124 195.414201 -127.682892 185.98433 -143.023766 C 176.746905 -158.36464 163.083214 -175.259019 144.993256 -194.095282 C 127.095746 -212.737357 116.31875 -223.6119 113.047162 -226.913101 C 109.583127 -230.40849 102.07772 -236.622514 89.953599 -245.943552 C 88.029136 -248.079623 86.682011 -249.244752 85.912226 -250.021505 L 73.980552 -250.021505 C 68.592054 -250.021505 64.935574 -250.021505 63.01111 -250.021505 C 61.086646 -250.021505 59.354629 -249.050564 58.007505 -246.914493 C 56.66038 -244.97261 55.698149 -242.059786 54.928363 -237.981832 C 55.698149 -237.399268 59.354629 -232.932937 66.090252 -224.971218 C 169.241497 -117.585102 221.009566 40.678343 221.009566 250.013303 C 221.009566 459.348264 169.241497 617.611709 66.090252 724.997825 C 59.354629 732.959544 55.698149 737.425874 54.928363 738.008439 C 54.928363 743.251523 56.66038 746.9411 59.931968 749.077171 Z M 59.931968 749.077171 " transform="matrix(0.0202979, 0, 0, -0.0201158, 170.974915, 217.681558)"/>
<path fill-rule="nonzero" fill="rgb(100%, 39.99939%, 0%)" fill-opacity="1" stroke-width="5.911952" stroke-linecap="butt" stroke-linejoin="miter" stroke="rgb(100%, 39.99939%, 0%)" stroke-opacity="0.2526" stroke-miterlimit="4" d="M 92.064949 210.0418 C 92.064949 187.321771 96.683661 166.932002 105.921086 149.066681 C 115.350958 131.007172 127.282631 117.413992 141.908554 108.092955 C 156.726923 98.57773 170.967954 91.004387 185.016537 84.98455 C 199.065121 78.964714 210.611902 74.692572 220.041774 71.973936 L 235.052589 70.032053 L 236.977053 71.002994 L 250.063405 111.976721 C 261.995079 150.620187 272.964521 183.632194 282.971731 211.012741 C 292.978941 238.393288 306.065293 267.715717 322.038341 298.98003 C 338.011388 330.244342 353.984435 355.683006 369.957483 374.907645 C 385.93053 394.326473 405.752504 410.249911 429.038513 423.066338 C 452.324522 435.688575 476.572762 442.096789 501.975681 442.096789 C 531.997312 442.096789 558.747355 431.416433 582.033364 410.055723 C 605.319372 388.695013 617.251046 352.575994 618.020832 302.087042 C 618.020832 250.044584 603.587355 199.944009 574.912849 151.979505 C 546.238342 104.015001 506.979286 64.983158 456.943234 35.078163 C 406.907182 4.978981 354.369328 -9.973516 298.944778 -9.973516 C 281.624607 -9.973516 272.964521 -10.750269 272.964521 -11.915399 L 266.036452 -48.034418 C 261.995079 -71.337011 257.376366 -96.969864 251.987868 -124.932975 C 246.59937 -153.090275 242.94289 -170.955597 241.018426 -178.917316 C 237.746838 -195.034943 229.086752 -205.909486 215.038168 -211.929323 C 207.725207 -216.007276 199.257568 -217.949159 190.020143 -217.949159 C 169.428383 -216.007276 159.03628 -204.938545 159.03628 -184.937152 C 159.03628 -178.334751 177.318683 -117.359633 214.075937 -2.011797 L 209.072332 -0.0699143 C 205.608297 1.289404 200.989585 3.037098 195.023748 4.978981 C 189.057911 6.920864 181.744949 10.027876 173.084863 13.911641 C 164.424778 17.989595 155.572245 22.650114 146.912159 28.087386 C 138.252074 33.330469 129.399541 39.350306 119.96967 45.952707 C 110.732245 52.749297 102.072159 60.905204 93.989412 71.002994 C 85.906666 80.906596 78.401258 91.586952 71.088296 103.04406 C 63.582889 114.30698 58.579283 127.317594 56.077481 142.075903 C 53.383232 156.640024 51.266322 172.757651 49.919198 190.040407 C 49.919198 222.081473 58.579283 262.278446 76.091902 311.019703 C 93.412073 359.76096 117.660314 399.763745 149.029069 431.028057 L 161.922975 431.028057 C 175.971559 431.028057 183.092074 428.309421 183.092074 423.066338 C 183.092074 418.988384 180.397825 414.327865 175.009327 409.084782 C 147.681945 377.043716 127.282631 340.730509 114.003833 299.950971 C 100.725035 259.365621 93.412073 229.266439 92.064949 210.0418 Z M 573.950617 278.007696 C 573.950617 305.970808 566.060316 327.914083 550.087269 344.03171 C 533.921775 359.955148 512.752677 368.305244 486.002634 369.081997 C 453.286753 369.081997 422.687783 355.683006 394.013277 329.079212 C 365.33877 302.28123 341.667869 265.385458 323.000572 218.003519 C 313.570701 195.283491 304.333276 158.970283 295.095851 109.063896 L 286.050873 64.012217 C 297.982547 62.652899 304.718169 62.070334 306.065293 62.070334 C 384.006066 62.070334 448.090702 84.98455 497.934307 131.007172 C 547.970359 177.029793 573.373278 225.965238 573.950617 278.007696 Z M 573.950617 278.007696 " transform="matrix(0.0202979, 0, 0, -0.0201158, 132.205497, 88.365781)"/>
<path fill-rule="nonzero" fill="rgb(100%, 39.99939%, 0%)" fill-opacity="1" stroke-width="8.362026" stroke-linecap="butt" stroke-linejoin="miter" stroke="rgb(100%, 39.99939%, 0%)" stroke-opacity="0.1786" stroke-miterlimit="4" d="M 109.035484 429.050357 C 91.070194 429.050357 76.643522 435.092991 66.027668 446.903593 C 55.411815 458.98886 49.967787 473.546113 49.967787 491.124683 C 49.967787 538.367091 67.660876 579.292199 103.047054 613.900009 C 138.433232 648.782484 182.257652 666.086389 235.064718 666.086389 C 295.765623 666.086389 346.395077 647.409159 386.953081 610.054697 C 427.783286 572.700235 448.198389 524.359167 449.014993 465.031493 C 449.014993 436.466317 442.209959 408.999801 428.872092 382.906611 C 415.534225 357.088086 399.746545 334.290877 380.964651 315.064316 C 362.454958 295.56309 335.779224 271.117891 300.937449 240.904723 C 276.983728 220.304836 243.775161 189.542339 201.039547 148.891895 L 141.97185 93.134868 L 217.916031 92.036207 C 322.713558 92.036207 378.242637 93.684198 385.047671 96.98018 C 389.675095 98.353506 397.568934 128.017343 409.001392 185.971692 L 409.001392 188.993008 L 449.014993 188.993008 L 449.014993 185.971692 C 448.198389 184.049035 444.115368 153.561203 435.949327 95.057524 C 428.055487 36.27918 422.883662 5.791347 420.978252 3.044696 L 420.978252 0.023379 L 49.967787 0.023379 L 49.967787 31.060542 C 49.967787 35.72985 51.873197 40.673822 55.956218 45.892461 C 60.039238 51.385764 70.110689 62.9217 85.898368 81.049601 C 105.224665 102.198818 122.10115 120.876049 135.98342 137.081293 C 141.97185 143.673257 153.404307 156.033189 170.008591 173.886425 C 186.612874 192.014325 198.045332 204.374257 204.033762 210.966221 C 210.022192 217.558185 219.54924 228.544791 232.887107 243.92604 C 246.224974 259.307289 255.752022 270.568561 260.923848 277.98452 C 266.367875 285.400479 273.989513 295.288425 284.060964 307.923022 C 294.132414 320.557619 300.937449 331.269561 305.020469 340.058846 C 309.10349 348.573466 314.003114 358.461411 319.991544 368.898687 C 325.979975 379.610629 330.335196 390.32257 333.05721 401.034511 C 335.779224 411.746452 337.956835 421.634398 340.134446 430.973013 C 342.039855 440.311629 343.128661 451.298235 343.128661 463.932832 C 343.128661 505.956602 331.696203 542.212403 309.10349 572.974901 C 286.238575 603.737398 254.118813 619.118647 211.927601 619.118647 C 189.879291 619.118647 170.552993 613.350679 153.94871 602.089407 C 137.344427 590.553471 125.639768 579.566864 119.106935 569.129588 C 112.301901 558.417647 109.035484 552.100348 109.035484 549.903027 C 109.035484 549.353697 110.668693 549.079032 113.935109 549.079032 C 125.911969 549.079032 138.433232 544.409724 150.954495 535.071109 C 163.747959 525.732493 170.008591 510.351244 170.008591 488.927362 C 170.008591 472.447452 164.564563 458.439529 153.94871 446.903593 C 143.332857 435.642321 128.361781 429.599688 109.035484 429.050357 Z M 109.035484 429.050357 " transform="matrix(0.0143506, 0, 0, -0.0142219, 146.15012, 91.383145)"/>
<path fill-rule="nonzero" fill="rgb(100%, 39.99939%, 0%)" fill-opacity="1" stroke-width="5.911952" stroke-linecap="butt" stroke-linejoin="miter" stroke="rgb(100%, 39.99939%, 0%)" stroke-opacity="0.2526" stroke-miterlimit="4" d="M 93.982933 250.044584 C 93.982933 296.067206 97.254521 339.759567 103.990143 380.927482 C 110.725765 422.289584 118.423619 458.020227 127.083705 487.925222 C 135.743791 518.024404 148.060358 547.346834 164.033405 576.086699 C 180.006452 604.632375 192.707912 626.964027 201.945337 643.081654 C 211.375208 659.005092 225.423792 676.287849 244.091088 694.929923 C 262.758384 713.571997 273.727826 725.029106 276.999414 728.912871 C 280.271002 732.990825 288.738642 739.981603 302.01744 750.079393 L 318.952719 750.079393 C 328.382591 750.079393 333.001303 746.972381 333.001303 740.952544 C 333.001303 739.010662 327.420359 732.019884 316.066024 719.980211 C 304.711689 707.940537 291.047998 690.269404 275.074951 666.966811 C 258.909457 643.664218 242.743963 614.924354 226.001131 580.941405 C 209.258298 546.958457 195.402161 500.935836 184.047826 443.06773 C 172.693491 385.005436 166.9201 320.729116 166.9201 250.044584 C 166.9201 179.360052 172.693491 115.277921 184.047826 57.99238 C 195.402161 0.706839 209.065852 -45.704159 225.038899 -81.046425 C 241.011946 -116.388691 257.369886 -144.934368 273.920273 -167.071831 C 290.663105 -189.015106 304.711689 -206.686239 316.066024 -220.08523 C 327.420359 -233.290033 333.001303 -240.280811 333.001303 -241.057564 C 333.001303 -247.077401 327.997698 -249.990225 317.990487 -249.990225 L 302.01744 -249.990225 L 273.920273 -225.910879 C 211.375208 -169.40209 165.572976 -98.717558 137.090916 -14.05147 C 108.416409 70.614618 93.982933 158.581907 93.982933 250.044584 Z M 93.982933 250.044584 " transform="matrix(0.0202979, 0, 0, -0.0201158, 154.342347, 88.365781)"/>
<path fill-rule="nonzero" fill="rgb(100%, 39.99939%, 0%)" fill-opacity="1" stroke-width="5.911952" stroke-linecap="butt" stroke-linejoin="miter" stroke="rgb(100%, 39.99939%, 0%)" stroke-opacity="0.2526" stroke-miterlimit="4" d="M 51.963551 289.076428 C 56.582263 317.039539 74.67222 349.274793 106.040976 385.976377 C 137.409731 422.677961 176.091448 441.320035 222.086127 442.096789 C 245.372135 442.096789 266.733681 436.076952 285.978316 424.037279 C 305.415398 411.997606 319.656428 397.045109 329.086299 378.985599 C 356.99102 420.930267 390.669132 442.096789 429.928188 442.096789 C 454.753767 442.096789 475.922866 434.717634 494.012824 419.959325 C 511.910334 405.395205 521.340206 385.588 521.917545 360.926089 C 521.917545 341.70145 517.298832 325.9722 508.061407 313.932527 C 498.631536 302.087042 489.586557 294.707888 480.926472 291.989252 C 472.266386 289.270616 464.760978 287.911298 458.025355 287.911298 C 445.323896 287.911298 434.931793 291.600875 427.041493 298.98003 C 418.958746 306.359184 414.917372 316.068598 414.917372 327.914083 C 414.917372 358.59583 431.660205 379.762352 464.953424 391.025272 C 457.640463 399.763745 444.361664 404.035887 424.924583 404.035887 C 416.264497 404.035887 409.913767 403.259133 406.06484 402.094004 C 380.661922 391.413649 361.994625 369.276185 350.062951 336.06999 C 310.03411 188.681089 290.019689 102.655683 290.019689 77.993772 C 290.019689 59.351698 295.408187 45.952707 305.992737 37.990988 C 316.577286 30.029268 328.316514 25.951315 341.017973 25.951315 C 365.651106 25.951315 390.091793 37.020046 413.955141 58.963321 C 438.010935 80.906596 454.368875 108.092955 463.028961 139.939832 C 464.953424 146.736422 467.070334 150.425999 468.994798 151.008564 C 470.919261 151.591129 476.307759 152.367882 484.967845 152.950447 L 489.009218 152.950447 C 499.016429 152.950447 504.020034 150.425999 504.020034 144.988727 C 504.020034 144.406162 503.250248 140.716585 502.09557 133.919996 C 491.318575 96.053282 470.726815 62.264522 439.935398 32.942092 C 409.336428 3.619663 373.733853 -10.944458 332.935226 -10.944458 C 286.363209 -10.944458 250.95308 10.027876 227.089732 51.972543 C 199.76235 10.610441 168.393594 -9.973516 132.983465 -9.973516 L 127.017628 -9.973516 C 94.301748 -9.973516 71.01574 -1.429232 56.967156 16.047713 C 42.918572 33.330469 35.605611 51.584167 35.028272 71.002994 C 35.028272 92.363705 41.379001 109.646461 54.08046 123.045452 C 66.589473 136.250255 81.600289 143.046845 98.920461 143.046845 C 127.594967 143.046845 142.028444 129.065289 142.028444 100.907989 C 142.028444 87.703186 137.98707 76.05189 129.904324 65.954099 C 122.014023 56.050497 114.316169 49.253908 107.003208 45.952707 C 99.690246 42.651506 95.26398 40.903812 93.916856 40.903812 L 91.03016 39.93287 C 91.03016 39.350306 92.954624 37.990988 96.995997 36.049105 C 101.037371 33.913034 106.425869 31.582775 112.969045 29.058327 C 119.704667 26.339691 126.055397 25.36875 132.021233 25.951315 C 156.077028 25.951315 176.668787 40.903812 193.988959 71.002994 C 199.954796 81.68335 207.65265 104.403378 217.082522 138.968891 C 226.319946 173.728592 235.749818 209.653423 244.987243 246.937572 C 254.417114 284.415909 259.613166 306.359184 260.96029 312.961585 C 264.424324 331.021095 265.963895 344.03171 265.963895 351.993429 C 265.963895 370.635503 260.96029 384.034494 250.95308 391.996214 C 240.945869 399.957933 229.591534 404.035887 217.082522 404.035887 C 190.332478 404.035887 165.314453 393.355531 142.028444 371.994821 C 118.742435 350.634111 102.384495 323.253564 92.954624 290.047369 C 91.607499 284.027532 90.067929 280.726332 87.951019 279.949579 C 86.026555 279.367014 80.638057 278.590261 71.977971 278.007696 L 57.929388 278.007696 C 54.08046 282.08565 51.963551 285.581039 51.963551 289.076428 Z M 51.963551 289.076428 " transform="matrix(0.0202979, 0, 0, -0.0201158, 162.23822, 88.365781)"/>
<path fill-rule="nonzero" fill="rgb(100%, 39.99939%, 0%)" fill-opacity="1" stroke-width="5.911952" stroke-linecap="butt" stroke-linejoin="miter" stroke="rgb(100%, 39.99939%, 0%)" stroke-opacity="0.2526" stroke-miterlimit="4" d="M 59.99673 748.914264 L 64.038103 750.079393 C 67.309691 750.079393 70.581279 750.079393 74.045314 750.079393 L 85.976988 750.079393 L 114.074155 726.000047 C 176.61922 669.297071 222.421452 598.612538 251.095958 513.94645 C 279.578019 429.280362 294.011495 341.313074 294.011495 250.044584 C 294.011495 204.604528 290.739907 160.912166 284.004285 118.967498 C 277.268662 77.022831 269.570808 41.292188 260.910722 11.969759 C 252.250637 -17.352671 239.93407 -46.6751 223.961023 -75.99753 C 207.987975 -105.31996 195.286516 -127.651611 186.049091 -142.992485 C 176.61922 -158.333359 162.955529 -175.421927 145.058018 -194.064001 C 126.968061 -212.706076 116.383511 -223.580619 112.919477 -227.076008 C 109.647889 -230.377209 101.950035 -236.591234 90.018361 -245.912271 C 88.093897 -248.048342 86.746773 -249.40766 85.976988 -249.990225 L 74.045314 -249.990225 C 68.656816 -249.990225 65.000335 -249.990225 63.075871 -249.990225 C 60.958962 -249.990225 59.419391 -249.019283 58.072266 -247.077401 C 56.725142 -244.94133 55.570464 -242.028505 54.993125 -237.950552 C 55.570464 -237.367987 59.419391 -233.095845 65.962567 -224.939937 C 169.306258 -117.748009 221.074327 40.709623 221.074327 250.044584 C 221.074327 459.379545 169.306258 617.642989 65.962567 725.029106 C 59.419391 732.990825 55.570464 737.262967 54.993125 738.03972 C 54.993125 743.282804 56.725142 746.972381 59.99673 748.914264 Z M 59.99673 748.914264 " transform="matrix(0.0202979, 0, 0, -0.0201158, 173.848601, 88.365781)"/>
</svg>
