<?xml version="1.0" encoding="UTF-8"?>
<svg xmlns="http://www.w3.org/2000/svg" xmlns:xlink="http://www.w3.org/1999/xlink" width="262.07999" height="183.12" viewBox="0 0 262.07999 183.12">
<defs>
<clipPath id="clip-0">
<path clip-rule="nonzero" d="M 0 0 L 262 0 L 262 182.324219 L 0 182.324219 Z M 0 0 "/>
</clipPath>
</defs>
<g clip-path="url(#clip-0)">
<path fill-rule="nonzero" fill="rgb(100%, 100%, 100%)" fill-opacity="1" d="M 0 0 L 262 0 L 262 182.324219 L 0 182.324219 Z M 0 0 "/>
</g>
<path fill-rule="nonzero" fill="rgb(83.918762%, 84.709167%, 85.099792%)" fill-opacity="1" d="M 114.847656 144.640625 L 114.828125 142.488281 L 115.546875 142.480469 L 115.566406 144.636719 M 114.808594 140.335938 L 114.785156 138.183594 L 115.503906 138.175781 L 115.523438 140.328125 M 114.765625 136.027344 L 114.742188 133.875 L 115.460938 133.867188 L 115.480469 136.023438 M 114.722656 131.722656 L 114.699219 129.570312 L 115.417969 129.5625 L 115.4375 131.714844 M 114.679688 127.414062 L 114.65625 125.261719 L 115.375 125.253906 L 115.398438 127.410156 M 114.636719 123.109375 L 114.613281 120.957031 L 115.332031 120.949219 L 115.355469 123.101562 M 114.59375 118.800781 L 114.574219 116.648438 L 115.289062 116.640625 L 115.3125 118.796875 M 114.550781 114.496094 L 114.53125 112.34375 L 115.246094 112.335938 L 115.269531 114.488281 M 114.507812 110.1875 L 114.488281 108.035156 L 115.203125 108.027344 L 115.226562 110.183594 "/>
<path fill-rule="nonzero" fill="rgb(83.918762%, 84.709167%, 85.099792%)" fill-opacity="1" stroke-width="8.566021" stroke-linecap="butt" stroke-linejoin="miter" stroke="rgb(83.918762%, 84.709167%, 85.099792%)" stroke-opacity="0.1682" stroke-miterlimit="4" d="M 212.865344 578.052072 L 199.865217 573.032919 C 190.795361 569.686817 177.190578 566.340714 159.957852 562.994612 C 142.725126 559.64851 123.376101 557.417776 101.910775 556.023566 L 82.864078 556.023566 L 82.864078 602.03247 L 101.910775 602.03247 C 133.352942 603.426679 162.37648 608.445833 188.98139 617.08993 C 215.5863 625.734027 234.330669 633.541598 244.912167 641.070328 C 255.795994 648.320216 264.86585 655.570104 273.02872 663.098833 C 274.238034 665.050726 278.470634 665.887252 285.121861 665.887252 C 290.866103 665.887252 296.610345 663.935359 302.052258 660.031573 L 302.052258 361.113119 L 302.959244 61.079298 C 307.7965 56.338986 311.726771 53.271726 315.052385 51.877517 C 318.377999 50.76215 326.23854 49.36794 338.936338 47.973731 C 351.634136 46.579522 372.192476 46.021838 400.913686 46.021838 L 426.913939 46.021838 L 426.913939 0.0129344 L 416.030112 0.0129344 C 402.123 1.964827 348.91318 3.080195 257.005308 3.080195 C 166.306751 3.080195 114.003916 1.964827 100.096804 0.0129344 L 88.003663 0.0129344 L 88.003663 46.021838 L 114.003916 46.021838 C 128.515685 46.021838 141.213483 46.021838 152.09731 46.021838 C 162.678809 46.021838 171.144007 46.30068 176.888249 47.137206 C 182.93482 47.694889 188.376733 48.531415 192.911661 49.925624 C 197.748918 51.319833 200.469874 51.877517 201.074531 51.877517 C 201.679188 51.877517 203.795488 53.550568 207.121102 56.89667 C 210.446716 60.242772 212.260687 61.636981 212.865344 61.079298 Z M 212.865344 578.052072 " transform="matrix(0.0129205, 0, 0, -0.0140088, 134.230132, 121.308775)"/>
<path fill-rule="nonzero" fill="rgb(0%, 0%, 0%)" fill-opacity="1" stroke-width="8.852973" stroke-linecap="butt" stroke-linejoin="miter" stroke="rgb(0%, 0%, 0%)" stroke-opacity="0.1654" stroke-miterlimit="4" d="M 95.959967 585.123221 C 133.448704 639.013387 184.239896 666.102562 248.9382 666.102562 C 280.985023 666.102562 313.031847 657.457081 345.078671 639.877935 C 377.125494 622.586973 403.125747 592.039606 423.07943 547.947652 C 447.56804 492.616572 459.96351 416.536337 459.96351 319.99513 C 459.96351 216.537537 445.754069 137.575475 417.032859 83.108944 C 403.730404 54.867038 385.288364 32.67697 362.009068 15.962373 C 338.729772 -0.752224 318.47376 -11.126802 300.938706 -14.873177 C 283.70598 -18.907735 266.775583 -21.213197 250.147514 -22.077745 C 232.61246 -22.077745 215.379734 -20.060466 198.147008 -16.025908 C 180.611953 -11.99135 160.355942 -1.32859 137.076646 15.962373 C 113.797349 33.253335 95.355309 55.731586 82.052854 83.108944 C 53.331645 137.575475 39.122204 216.537537 39.122204 319.99513 C 39.122204 436.132761 57.866572 524.31667 95.959967 585.123221 Z M 320.892389 596.938712 C 300.938706 618.264232 277.357081 628.926993 250.147514 628.926993 C 222.030961 628.926993 198.147008 618.264232 177.890997 596.938712 C 161.262928 579.647749 150.379101 555.728585 144.937187 524.893035 C 139.797603 494.345668 137.076646 430.369107 137.076646 332.963351 C 137.076646 227.776663 139.797603 158.32463 144.937187 124.895436 C 150.379101 91.754425 162.472242 65.241616 180.914282 45.933374 C 199.65865 26.048767 222.635618 15.962373 250.147514 15.962373 C 276.752424 15.962373 299.427063 26.048767 317.869103 45.933374 C 337.218129 66.106164 349.31127 94.059887 354.148526 130.082725 C 358.683454 166.105564 361.404411 233.540317 362.009068 332.963351 C 362.009068 429.792741 359.288111 493.192937 354.148526 524.028487 C 348.706613 554.575854 337.520458 579.071384 320.892389 596.938712 Z M 320.892389 596.938712 " transform="matrix(0.0129205, 0, 0, -0.0135548, 27.99452, 159.052304)"/>
<path fill="none" stroke-width="1" stroke-linecap="butt" stroke-linejoin="miter" stroke="rgb(0%, 0%, 0%)" stroke-opacity="1" stroke-miterlimit="10" d="M 33.000419 233.001618 L 33.000419 46.3712 " transform="matrix(0.717808, 0, 0, 0.717808, 0.358904, 0.358904)"/>
<path fill-rule="nonzero" fill="rgb(0%, 0%, 0%)" fill-opacity="1" stroke-width="1" stroke-linecap="butt" stroke-linejoin="miter" stroke="rgb(0%, 0%, 0%)" stroke-opacity="1" stroke-miterlimit="10" d="M 33.000419 41.119753 L 36.499569 48.118054 L 33.000419 46.3712 L 29.501268 48.118054 Z M 33.000419 41.119753 " transform="matrix(0.717808, 0, 0, 0.717808, 0.358904, 0.358904)"/>
<path fill="none" stroke-width="1" stroke-linecap="butt" stroke-linejoin="miter" stroke="rgb(0%, 0%, 0%)" stroke-opacity="1" stroke-miterlimit="10" d="M 14.002699 200.997726 L 236.631375 200.507954 " transform="matrix(0.717808, 0, 0, 0.717808, 0.358904, 0.358904)"/>
<path fill-rule="nonzero" fill="rgb(0%, 0%, 0%)" fill-opacity="1" stroke-width="1" stroke-linecap="butt" stroke-linejoin="miter" stroke="rgb(0%, 0%, 0%)" stroke-opacity="1" stroke-miterlimit="10" d="M 241.877379 200.502512 L 234.889962 204.017988 L 236.631375 200.507954 L 234.868195 197.019687 Z M 241.877379 200.502512 " transform="matrix(0.717808, 0, 0, 0.717808, 0.358904, 0.358904)"/>
<path fill-rule="nonzero" fill="rgb(0%, 0%, 0%)" fill-opacity="1" stroke-width="8.693684" stroke-linecap="butt" stroke-linejoin="miter" stroke="rgb(0%, 0%, 0%)" stroke-opacity="0.1653" stroke-miterlimit="4" d="M 51.888542 288.974806 C 56.6995 317.016306 74.528345 349.371882 105.941072 386.041536 C 137.353799 422.711189 176.124462 441.20009 221.970063 442.124535 C 245.458859 442.124535 266.683675 435.961568 285.927507 423.943783 C 305.454338 411.925997 319.604215 397.134876 328.943134 378.954124 C 356.95989 420.862299 390.636597 442.124535 429.973255 442.124535 C 454.594041 442.124535 476.101855 434.728975 493.9307 419.937854 C 512.042542 405.454882 521.381461 385.733387 521.947456 361.081519 C 521.947456 341.668173 517.419495 325.952608 508.080577 313.934822 C 498.741658 301.917036 489.685736 294.521476 480.912813 292.056289 C 472.422886 289.282954 464.781953 288.050361 457.990012 288.050361 C 445.255123 288.050361 435.067211 291.748141 426.860282 299.143701 C 418.936351 306.231113 414.974386 316.09186 414.974386 328.109646 C 414.974386 358.616333 431.671241 379.57042 465.06495 390.971909 C 457.707014 399.600063 444.40613 403.91414 424.8793 403.91414 C 416.389374 403.91414 409.88043 403.297843 405.918465 402.06525 C 380.731683 391.280058 362.053846 369.401525 349.884952 336.121503 C 309.982298 188.518444 289.889473 102.545055 289.889473 77.893187 C 289.889473 59.404286 295.266426 46.153907 306.020333 38.14205 C 316.774239 30.130193 328.377138 26.124264 341.112028 26.124264 C 365.732814 26.124264 390.070602 36.909456 414.125393 59.096137 C 437.897187 80.97467 454.311044 108.091725 463.083968 140.139153 C 465.06495 146.610269 467.045933 150.308049 469.026916 150.924345 C 471.007899 151.540642 476.384852 152.465087 484.874778 153.081384 L 489.119741 153.081384 C 499.024655 153.081384 504.118611 150.308049 504.118611 145.069527 C 504.118611 144.45323 503.269618 140.75545 502.137628 133.976186 C 491.383722 96.073939 470.724901 62.485769 439.878169 32.903528 C 409.314435 3.629435 373.656745 -10.853538 332.905099 -10.853538 C 286.210505 -10.853538 251.11881 10.10055 227.064019 52.008725 C 199.613258 10.716847 168.200531 -9.929093 133.108836 -9.929093 L 126.88289 -9.929093 C 94.338173 -9.929093 71.132374 -1.300939 56.982497 15.955369 C 43.115618 33.211676 35.757682 51.700577 34.908689 71.113923 C 34.908689 92.376159 41.417633 109.632467 53.869524 122.882846 C 66.604414 136.441373 81.603283 142.912488 98.866133 142.912488 C 127.731882 142.912488 141.881759 129.045813 141.881759 101.004313 C 141.881759 87.753934 137.919794 76.044297 129.995863 65.875401 C 122.071932 56.014654 114.430998 49.23539 107.073062 46.153907 C 99.715126 42.764275 95.470163 40.915385 94.055175 40.915385 L 90.942202 39.99094 C 90.942202 39.374643 92.923185 38.14205 96.885151 35.985011 C 101.130114 34.136121 106.224069 31.670934 113.01601 28.897599 C 119.807951 26.432412 126.033897 25.199819 131.976846 26.124264 C 156.031636 26.124264 176.690457 40.915385 193.953307 71.113923 C 199.896255 81.590967 207.537189 104.393945 216.876108 138.90656 C 226.215026 173.727323 235.553945 209.78068 244.892864 247.06663 C 254.231783 284.352581 259.608736 306.231113 261.023724 313.010377 C 264.419694 330.882981 266.11768 344.13336 266.11768 352.145217 C 266.11768 370.634118 261.023724 383.884497 251.11881 391.896354 C 240.930899 399.908211 229.610997 403.91414 216.876108 403.91414 C 190.274339 403.91414 165.370555 393.437096 141.881759 371.866712 C 118.675961 350.604476 102.262104 323.179272 92.923185 289.899251 C 91.791195 284.044432 90.09321 280.6548 88.112227 280.038504 C 86.131244 279.422207 80.754291 278.80591 71.981367 277.881465 L 58.114488 277.881465 C 53.869524 281.887394 51.888542 285.585174 51.888542 288.974806 Z M 51.888542 288.974806 " transform="matrix(0.0138031, 0, 0, -0.0126765, 167.96737, 159.213977)"/>
<path fill-rule="nonzero" fill="rgb(0%, 0%, 0%)" fill-opacity="1" stroke-width="9.01355" stroke-linecap="butt" stroke-linejoin="miter" stroke="rgb(0%, 0%, 0%)" stroke-opacity="0.1656" stroke-miterlimit="4" d="M 20.993269 286.869818 C 20.993269 296.258933 26.030076 312.396473 36.103689 334.98903 C 45.88102 357.581587 61.880288 381.347783 84.101494 405.994209 C 106.026418 430.640634 130.617886 442.670437 157.875898 442.083618 C 185.430194 442.083618 207.355117 434.454962 223.946951 418.904241 C 240.538785 403.64693 249.427267 382.228013 250.019833 354.940899 C 248.538419 342.324276 247.649571 335.28244 247.057005 334.108801 C 247.057005 332.054932 241.723916 316.797621 231.057737 288.043458 C 220.391558 259.289294 209.429096 227.014213 197.874069 190.924804 C 186.615325 155.128805 181.282235 126.374642 181.874801 104.955725 C 181.874801 76.201561 186.615325 56.249693 196.096373 45.100119 C 205.281138 33.657136 219.206427 27.78894 237.87224 26.90871 C 253.278943 26.90871 267.796797 30.723038 281.129521 38.058284 C 294.462245 45.393529 304.535858 53.022185 311.942927 60.94425 C 319.349995 68.866316 328.238478 80.015889 338.904657 94.099561 C 338.904657 94.686381 340.682353 101.434807 343.941463 114.051429 C 347.200574 126.668052 351.941097 146.32651 357.866752 173.026805 C 364.08869 199.727099 370.310628 224.373525 377.125131 246.966082 C 402.309164 347.018833 416.234454 399.245783 418.900998 403.94034 C 427.789481 422.131749 442.011053 430.934044 461.861997 430.934044 C 470.750479 430.934044 477.564982 428.586766 482.898072 423.892208 C 488.231161 419.197651 492.082837 415.383323 493.860533 411.862405 C 495.934512 408.634897 496.527078 405.700799 495.934512 403.060111 C 495.934512 394.257816 479.638961 324.426276 447.047859 192.978673 C 414.456757 61.53107 395.790944 -10.354338 391.05042 -22.970961 C 372.384607 -78.425418 340.089788 -122.436893 293.869679 -155.005384 C 247.945853 -187.573875 202.022028 -204.298235 156.098202 -204.885055 C 125.877362 -204.885055 99.80448 -197.549809 76.990708 -182.879318 C 54.47322 -168.208826 42.918192 -146.203089 42.918192 -116.862106 C 42.918192 -102.191615 45.288454 -89.868402 50.028978 -79.892468 C 54.769502 -69.916533 60.99144 -62.581288 68.991074 -57.88673 C 76.990708 -53.192173 83.805211 -49.964665 89.138301 -47.910796 C 94.47139 -45.856927 100.100763 -44.976698 106.026418 -44.976698 C 135.358409 -44.976698 149.876264 -59.06037 149.876264 -86.934304 C 149.876264 -100.431156 146.024588 -111.874139 138.024954 -122.143483 C 130.02532 -132.119417 122.321969 -138.574433 114.9149 -142.095351 C 107.804114 -145.322859 103.359873 -147.083318 101.878459 -147.083318 L 98.915632 -147.963548 C 100.397045 -151.191056 106.618983 -155.298794 117.877727 -159.993351 C 129.432755 -164.687908 140.691499 -167.035187 151.950243 -167.035187 L 159.949877 -167.035187 C 171.208622 -167.035187 180.097104 -166.448367 186.022759 -164.981318 C 207.947682 -159.113121 228.391192 -146.203089 247.057005 -127.13145 C 265.722818 -107.766401 279.94439 -86.934304 290.018003 -64.928566 C 300.091617 -42.922829 307.794968 -24.43801 313.128058 -8.887289 C 318.461147 6.370022 321.127692 16.345956 321.127692 21.040513 L 314.905754 16.932776 C 311.054078 14.292087 304.535858 10.771169 295.943658 6.076612 C 287.351459 1.382055 278.759259 -2.725683 269.870777 -5.953191 C 256.538053 -9.474109 243.797895 -10.941158 231.057737 -10.941158 C 200.244331 -10.941158 173.282601 -3.605912 149.876264 11.064579 C 126.76621 25.735071 111.359507 49.207857 103.952438 82.069758 C 103.359873 86.764315 103.06359 97.033659 103.06359 112.87779 C 103.06359 151.021068 114.618617 200.607329 138.024954 261.929983 C 161.431291 323.252637 172.986318 362.276144 172.986318 379.000505 C 172.986318 379.587324 172.986318 380.467554 172.986318 381.054373 C 172.986318 386.92257 172.986318 391.030308 172.986318 393.084176 C 172.986318 395.138045 171.801187 397.191914 169.134643 400.126012 C 166.468098 402.766701 162.616422 403.94034 157.875898 403.94034 L 154.024223 403.94034 C 138.61752 403.94034 124.692231 397.778734 111.952072 384.868701 C 99.211914 372.252079 89.434584 358.755226 82.027515 344.084735 C 74.620446 329.414244 68.991074 315.330572 65.139398 302.127129 C 60.99144 288.630277 58.324895 281.295032 57.139764 280.121392 C 55.658351 278.654343 50.325261 278.067523 41.140496 278.067523 L 26.918924 278.067523 C 23.067248 281.881851 20.993269 285.109359 20.993269 286.869818 Z M 20.993269 286.869818 " transform="matrix(0.0131842, 0, 0, -0.0133133, 11.484939, 28.854337)"/>
<path fill="none" stroke-width="1" stroke-linecap="butt" stroke-linejoin="miter" stroke="rgb(0%, 0%, 0%)" stroke-opacity="1" stroke-miterlimit="10" d="M 72.998482 139.999319 C 146.333706 179.997382 186.331769 153.332007 192.998113 59.997751 " transform="matrix(0.717808, 0, 0, 0.717808, 0.358904, 0.358904)"/>
<path fill-rule="nonzero" fill="rgb(0%, 0%, 0%)" fill-opacity="1" stroke-width="8.798715" stroke-linecap="butt" stroke-linejoin="miter" stroke="rgb(0%, 0%, 0%)" stroke-opacity="0.1678" stroke-miterlimit="4" d="M 118.132493 -161.996573 C 119.31473 -161.996573 121.383646 -162.569406 124.04368 -164.001489 C 126.703715 -165.433571 130.250427 -166.292821 134.979377 -166.865654 C 139.708327 -167.724903 143.550599 -168.01132 147.097311 -168.01132 C 155.668533 -168.01132 163.648636 -163.715072 171.03762 -155.122577 C 178.426605 -146.243666 183.746673 -136.791921 186.997827 -125.908094 C 193.795692 -107.863855 205.026948 -56.881718 220.987154 27.038316 C 236.947361 110.958351 252.316448 190.868554 267.094417 267.055343 C 281.576826 342.955715 288.96581 381.335526 288.96581 381.908359 L 288.96581 385.058941 L 241.97187 385.058941 C 210.642576 385.058941 194.091252 385.631774 192.022336 387.063856 C 189.362302 389.068772 187.884505 392.219353 187.884505 397.088434 L 194.97793 424.870834 C 196.455727 428.307832 199.115761 430.026331 202.958033 430.026331 C 207.095864 430.026331 222.760511 430.312748 249.951973 430.885581 C 281.872385 430.885581 298.128151 431.458414 298.128151 432.031247 C 298.128151 433.463329 301.083744 450.075486 306.994932 481.867718 C 312.906119 513.946366 317.043951 533.422688 319.112866 540.010267 C 343.644294 649.994203 392.411591 704.986171 465.119196 704.986171 C 489.650624 703.554088 510.044221 696.393676 526.004427 682.9321 C 541.964633 669.756941 549.944736 651.999119 549.944736 629.945048 C 549.944736 605.886062 543.146871 588.701072 528.960021 578.103662 C 515.06873 567.219835 500.88188 561.777921 486.99059 560.918672 C 457.730212 560.918672 442.952243 574.95308 442.952243 603.021897 C 442.952243 615.624223 446.794515 626.794467 453.88794 635.959795 C 461.276924 645.411539 469.257027 652.285535 478.123809 656.868199 L 486.99059 662.023696 C 476.350452 666.033527 466.301434 668.038442 457.139093 668.038442 C 448.863431 668.038442 441.474446 664.601444 434.085462 658.013865 C 426.696478 651.426286 421.671968 641.974541 419.011934 629.945048 C 414.282984 610.755143 408.962915 584.691241 403.051728 552.03976 C 397.140541 519.388279 391.524912 491.605879 387.091522 468.978975 C 382.362572 446.352072 379.998097 434.322579 379.998097 432.890496 C 379.998097 431.74483 398.322778 430.885581 434.97214 430.885581 C 465.119196 430.885581 482.26164 430.599164 486.99059 430.026331 C 491.71954 429.453498 495.266252 427.448583 497.926287 424.011585 C 498.812965 421.433836 497.926287 415.705506 495.857371 407.113011 C 494.084015 398.2341 492.310659 393.078603 491.128421 391.073687 C 489.650624 387.636689 486.69503 385.91819 481.96608 385.91819 C 477.237131 385.91819 459.208009 385.631774 427.878715 385.058941 L 372.017994 385.058941 L 348.964363 263.045512 C 317.043951 97.783192 294.581438 -5.613165 281.872385 -46.85714 C 264.138823 -103.567607 240.789632 -145.670833 212.120373 -172.8804 C 187.293386 -194.361638 163.057517 -204.959048 139.117208 -204.959048 C 117.541374 -204.959048 98.330015 -198.657885 80.892012 -186.055559 C 63.749568 -173.453233 54.882787 -155.408994 54.882787 -131.922841 C 54.882787 -107.291022 61.976212 -89.246782 75.867502 -78.076539 C 90.054352 -66.619879 103.945643 -60.891549 118.132493 -60.891549 C 147.392871 -60.891549 161.87528 -74.925957 161.87528 -102.994774 C 161.87528 -115.5971 158.328567 -126.767344 150.939583 -135.932672 C 143.550599 -145.384416 135.570496 -152.258412 126.999274 -157.127493 Z M 118.132493 -161.996573 " transform="matrix(0.0132165, 0, 0, -0.0136384, 122.751206, 37.505477)"/>
<path fill-rule="nonzero" fill="rgb(0%, 0%, 0%)" fill-opacity="1" stroke-width="8.798715" stroke-linecap="butt" stroke-linejoin="miter" stroke="rgb(0%, 0%, 0%)" stroke-opacity="0.1678" stroke-miterlimit="4" d="M 93.932848 249.870353 C 93.932848 295.98341 97.479561 339.805134 103.981867 381.04911 C 110.779732 422.293086 118.464276 458.095148 127.035498 487.882464 C 135.60672 517.956197 148.020213 547.457096 163.98042 576.098746 C 179.940626 604.740396 192.649679 627.080883 202.107579 643.120207 C 211.269919 658.873115 225.456769 676.344521 244.077009 694.961593 C 262.69725 713.578666 273.632947 725.035326 276.8841 729.045157 C 280.430812 733.054988 288.706475 739.928984 302.006647 749.953561 L 318.853531 749.953561 C 328.311431 749.953561 333.040381 747.089396 333.040381 741.07465 C 333.040381 739.069734 327.424753 731.909322 315.897937 719.879829 C 304.666681 708.136752 291.07095 690.378929 275.110744 666.892776 C 258.854978 643.69304 242.599213 615.05139 226.047888 580.967827 C 209.201004 546.884263 195.309713 501.057623 184.078457 442.915074 C 172.551641 385.058941 166.936013 320.615228 166.936013 249.870353 C 166.936013 179.411894 172.551641 115.254598 184.078457 57.971298 C 195.309713 0.687998 208.905444 -45.711474 224.86565 -80.940704 C 241.121416 -116.45635 257.377181 -145.098 273.928506 -166.865654 C 290.77539 -188.919724 304.666681 -206.677547 315.897937 -220.139123 C 327.424753 -233.314282 333.040381 -240.474694 333.040381 -241.047527 C 333.040381 -247.062274 328.015871 -249.926439 317.966853 -249.926439 L 302.006647 -249.926439 L 273.928506 -225.867453 C 211.269919 -169.443402 165.753776 -98.698527 137.084517 -13.919243 C 108.415257 70.573624 93.932848 158.789906 93.932848 249.870353 Z M 93.932848 249.870353 " transform="matrix(0.0132165, 0, 0, -0.0136384, 130.020259, 37.505477)"/>
<path fill-rule="nonzero" fill="rgb(0%, 0%, 0%)" fill-opacity="1" stroke-width="8.798715" stroke-linecap="butt" stroke-linejoin="miter" stroke="rgb(0%, 0%, 0%)" stroke-opacity="0.1678" stroke-miterlimit="4" d="M 51.919503 289.109414 C 56.648453 316.891814 74.677575 349.256878 106.006869 385.91819 C 137.336162 422.579502 176.05444 441.196575 221.866143 442.055824 C 245.215333 442.055824 266.791167 436.041078 286.002527 424.011585 C 305.213886 411.982092 319.696295 397.088434 328.858636 379.044194 C 356.936776 420.861003 390.630544 442.055824 429.939941 442.055824 C 454.766928 442.055824 476.047203 434.608995 494.076325 420.001754 C 512.105447 405.394512 521.267787 385.631774 521.858906 360.999955 C 521.858906 341.523633 517.425515 326.057142 507.967615 314.027649 C 498.805275 301.998156 489.642934 294.551327 481.071712 291.973579 C 472.204931 289.39583 464.520388 287.963748 458.018081 287.963748 C 445.309028 287.963748 434.96445 291.687162 426.984347 299.133991 C 419.004244 306.294404 414.866413 316.032564 414.866413 328.062057 C 414.866413 358.708623 431.713297 379.617027 465.111506 391.073687 C 457.722522 399.666182 444.42235 403.96243 424.915432 403.96243 C 416.34421 403.96243 410.137463 403.389597 405.999632 401.957514 C 380.581526 391.360104 361.961285 369.306033 350.13891 336.081719 C 309.942836 188.577222 290.140358 102.652272 290.140358 78.020453 C 290.140358 59.403381 295.460426 45.941805 306.100564 37.922143 C 316.740701 29.902481 328.267517 25.89265 340.97657 25.89265 C 365.803557 25.89265 390.039426 37.062894 413.979735 59.116964 C 437.920044 80.884618 454.471369 108.094186 463.042591 139.886417 C 465.111506 146.760413 466.884863 150.197411 468.953778 151.056661 C 471.022694 151.629494 476.342763 152.202327 484.913984 153.061576 L 489.051816 153.061576 C 499.100834 153.061576 504.125344 150.197411 504.125344 145.041914 C 504.125344 144.469081 503.238665 140.745667 502.056428 133.871671 C 491.416291 96.064693 470.727134 62.267546 439.98896 33.053063 C 409.250785 3.552163 373.78366 -11.055078 332.996467 -11.055078 C 286.298086 -11.055078 251.126521 10.139743 226.890652 51.956552 C 199.69919 10.712576 168.369896 -9.909412 132.902772 -9.909412 L 126.991584 -9.909412 C 94.480053 -9.909412 71.130863 -1.316917 56.944013 15.868073 C 43.052722 33.339479 35.663738 51.670135 35.072619 70.860041 C 35.072619 92.341278 41.279366 109.526268 53.988419 122.987844 C 66.697472 136.449419 81.771 143.036999 98.913444 143.036999 C 127.582703 143.036999 142.065112 129.00259 142.065112 100.933773 C 142.065112 87.758614 137.927281 76.015538 129.947178 65.99096 C 121.967075 55.966383 114.282531 49.378803 106.893547 45.941805 C 99.800122 42.791224 95.366731 41.072725 93.888934 41.072725 L 90.933341 39.927059 C 90.933341 39.354226 93.002256 37.922143 97.140087 35.917228 C 100.982359 33.912312 106.302428 31.62098 113.100294 29.043232 C 119.6026 26.465483 126.104906 25.319817 132.016093 25.89265 C 155.956403 25.89265 176.645559 41.072725 194.083562 70.860041 C 199.994749 81.743868 207.679293 104.370771 217.137193 139.027168 C 226.299533 173.683564 235.757433 209.772043 244.919774 247.006188 C 254.377674 284.240333 259.697742 306.294404 260.87998 312.881983 C 264.426692 330.926222 265.904489 344.101381 265.904489 352.121043 C 265.904489 370.738116 260.87998 383.913275 251.126521 391.932937 C 241.077502 399.952599 229.550686 403.96243 217.137193 403.96243 C 190.24129 403.96243 165.414303 393.365019 142.065112 371.883782 C 118.715922 350.688961 102.460156 323.192977 93.002256 289.968663 C 91.524459 283.953917 90.046663 280.803335 87.977747 279.944086 C 85.908831 279.371253 80.588763 278.79842 72.017541 277.93917 L 58.12625 277.93917 C 53.988419 281.949001 51.919503 285.672416 51.919503 289.109414 Z M 51.919503 289.109414 " transform="matrix(0.0132165, 0, 0, -0.0136384, 135.161464, 37.505477)"/>
<path fill-rule="nonzero" fill="rgb(0%, 0%, 0%)" fill-opacity="1" stroke-width="8.798715" stroke-linecap="butt" stroke-linejoin="miter" stroke="rgb(0%, 0%, 0%)" stroke-opacity="0.1678" stroke-miterlimit="4" d="M 60.103134 749.094312 L 63.945406 749.953561 C 67.196559 749.953561 70.743271 749.953561 73.994425 749.953561 L 86.112359 749.953561 L 113.89494 725.894575 C 176.553527 669.470525 222.36523 598.72565 251.034489 513.946366 C 279.703748 429.453498 293.890598 341.237216 293.890598 249.870353 C 293.890598 204.616546 290.639445 161.081238 284.137139 118.978013 C 277.339273 76.874787 269.654729 41.359141 261.083507 11.858242 C 252.216726 -17.356241 240.098792 -46.570724 224.138586 -76.071623 C 207.88282 -105.286106 195.469327 -127.626593 186.011427 -143.093084 C 176.553527 -158.273159 162.957796 -175.458149 144.928674 -194.075221 C 126.899552 -212.692294 116.259415 -223.576121 113.008262 -227.013119 C 109.757109 -230.450117 102.072565 -236.75128 89.954631 -245.916608 C 87.885715 -247.921523 86.703478 -249.353606 86.112359 -249.926439 L 73.994425 -249.926439 C 68.674356 -249.926439 65.127643 -249.926439 63.058728 -249.926439 C 60.989812 -249.926439 59.216456 -249.067189 58.034218 -247.062274 C 56.556422 -245.057358 55.669743 -241.906777 55.078625 -237.896946 C 55.669743 -237.324113 59.216456 -233.027865 66.014322 -225.008203 C 169.460102 -117.602016 220.887433 40.786308 220.887433 249.870353 C 220.887433 459.240814 169.460102 617.629139 66.014322 725.035326 C 59.216456 733.054988 55.669743 737.351235 55.078625 737.924068 C 55.078625 743.365982 56.556422 747.089396 60.103134 749.094312 Z M 60.103134 749.094312 " transform="matrix(0.0132165, 0, 0, -0.0136384, 142.721274, 37.505477)"/>
<path fill-rule="nonzero" fill="rgb(83.918762%, 84.709167%, 85.099792%)" fill-opacity="1" d="M 114.746094 107.261719 L 116.898438 107.277344 L 116.890625 107.996094 L 114.738281 107.980469 M 119.050781 107.296875 L 121.203125 107.3125 L 121.199219 108.03125 L 119.046875 108.011719 M 123.359375 107.328125 L 125.511719 107.34375 L 125.503906 108.0625 L 123.351562 108.046875 M 127.664062 107.363281 L 129.816406 107.378906 L 129.8125 108.097656 L 127.660156 108.078125 M 131.972656 107.394531 L 134.125 107.410156 L 134.117188 108.128906 L 131.964844 108.113281 M 136.277344 107.429688 L 138.429688 107.445312 L 138.425781 108.164062 L 136.273438 108.148438 M 140.585938 107.460938 L 142.738281 107.480469 L 142.734375 108.195312 L 140.578125 108.179688 M 144.890625 107.496094 L 147.042969 107.511719 L 147.039062 108.230469 L 144.886719 108.214844 M 149.199219 107.527344 L 151.351562 107.546875 L 151.347656 108.261719 L 149.191406 108.246094 M 153.503906 107.5625 L 155.660156 107.578125 L 155.652344 108.296875 L 153.5 108.28125 M 157.8125 107.59375 L 159.964844 107.613281 L 159.960938 108.328125 L 157.804688 108.3125 M 162.117188 107.628906 L 164.273438 107.644531 L 164.265625 108.363281 L 162.113281 108.347656 M 166.425781 107.660156 L 167.609375 107.671875 L 167.605469 108.390625 L 166.417969 108.378906 "/>
<path fill-rule="nonzero" fill="rgb(83.918762%, 84.709167%, 85.099792%)" fill-opacity="1" stroke-width="8.860306" stroke-linecap="butt" stroke-linejoin="miter" stroke="rgb(83.918762%, 84.709167%, 85.099792%)" stroke-opacity="0.1678" stroke-miterlimit="4" d="M 311.049223 43.099664 C 300.954474 34.293313 286.244982 24.899871 266.920748 14.91934 C 247.596514 4.938809 227.407016 -0.0514568 206.063832 -0.0514568 C 163.954307 -0.0514568 130.209003 14.91934 105.116341 44.860934 C 79.735257 75.096073 66.756294 113.256928 65.89103 159.930589 C 65.89103 230.087853 91.560535 294.374217 142.899545 353.083225 C 194.238555 411.792232 251.345993 441.440281 313.933437 442.027371 C 345.37137 442.027371 374.213511 425.882394 401.036701 393.885985 L 403.920915 397.995616 C 405.363022 400.050431 407.093551 402.105246 409.1125 403.866516 C 411.13145 405.921332 414.015664 408.563237 418.053564 412.085777 C 422.091464 415.314773 426.417785 417.663133 431.032527 419.130858 C 435.64727 420.305039 441.127276 421.479219 446.895704 422.066309 C 456.413611 422.066309 463.912567 419.130858 469.969417 412.966413 C 476.026266 407.095512 479.198902 400.637521 480.064166 393.885985 C 480.064166 383.905454 461.028353 303.474113 422.956728 152.004873 C 384.885103 0.535633 364.984026 -76.666712 362.965076 -79.895707 C 351.139798 -116.001747 325.470293 -145.649796 285.956561 -169.133399 C 246.73125 -192.323457 201.737511 -204.358804 150.975344 -204.945894 C 56.949967 -204.945894 9.937278 -182.342926 9.937278 -137.13699 C 9.937278 -119.524288 15.994127 -104.259946 28.107826 -91.050419 C 39.933104 -77.547347 55.219438 -71.089356 73.966829 -71.089356 C 84.061579 -71.089356 93.291063 -74.024807 101.943706 -79.895707 C 110.596348 -86.060153 115.21109 -96.33423 116.076354 -111.011481 C 116.076354 -117.763017 115.21109 -123.927463 114.057405 -130.091909 C 112.615297 -135.96281 110.307926 -140.65953 107.135291 -143.888526 C 103.674234 -147.411066 101.078441 -150.640062 99.059492 -153.869057 C 97.040542 -157.391598 94.73317 -160.033503 92.137378 -162.088318 L 90.118428 -164.143133 L 90.983692 -164.143133 C 97.617385 -165.904404 117.806883 -167.078584 150.975344 -167.078584 C 176.356428 -167.078584 196.257505 -162.968953 210.966996 -155.043237 C 226.253331 -147.704611 240.674401 -136.5499 253.941785 -121.872648 C 267.20917 -107.195396 276.727076 -91.637509 281.918661 -74.905442 C 285.956561 -62.283005 291.436568 -41.734852 298.07026 -12.967439 C 306.722902 19.028971 311.049223 37.522308 311.049223 43.099664 Z M 384.019838 328.131896 L 379.981939 338.993063 C 377.962989 346.331689 376.23246 351.321954 375.078775 353.96386 C 373.636668 356.605765 371.617718 361.302486 369.021925 368.054022 C 366.426133 374.805558 362.965076 379.208733 358.927176 382.144184 C 354.889277 384.786089 350.562955 388.308629 345.948213 393.00535 C 341.333471 397.702071 335.276621 400.637521 328.066086 402.105246 C 320.56713 403.279426 313.356594 404.453606 305.857638 405.040697 C 276.727076 405.040697 248.461779 387.427994 221.061745 351.909045 C 200.872247 326.077081 184.432227 286.448501 170.876421 233.023304 C 157.609036 179.598107 150.975344 141.143707 150.975344 117.073014 C 150.975344 64.234907 171.741685 38.109398 212.985946 38.109398 C 250.192307 38.109398 287.110247 61.299456 322.874501 107.973117 L 330.9503 117.953649 Z M 384.019838 328.131896 " transform="matrix(0.0135436, 0, 0, -0.0133072, 165.095883, 93.456347)"/>
<path fill="none" stroke-width="1" stroke-linecap="butt" stroke-linejoin="miter" stroke="rgb(83.918762%, 84.709167%, 85.099792%)" stroke-opacity="1" stroke-miterlimit="10" d="M 162.621353 153.00005 L 220.381821 153.00005 " transform="matrix(0.717808, 0, 0, 0.717808, 0.358904, 0.358904)"/>
<path fill-rule="nonzero" fill="rgb(83.918762%, 84.709167%, 85.099792%)" fill-opacity="1" stroke-width="1" stroke-linecap="butt" stroke-linejoin="miter" stroke="rgb(83.918762%, 84.709167%, 85.099792%)" stroke-opacity="1" stroke-miterlimit="10" d="M 161.119385 153.00005 L 163.122009 152.330695 L 162.621353 153.00005 L 163.122009 153.669405 Z M 161.119385 153.00005 " transform="matrix(0.717808, 0, 0, 0.717808, 0.358904, 0.358904)"/>
<path fill-rule="nonzero" fill="rgb(83.918762%, 84.709167%, 85.099792%)" fill-opacity="1" stroke-width="1" stroke-linecap="butt" stroke-linejoin="miter" stroke="rgb(83.918762%, 84.709167%, 85.099792%)" stroke-opacity="1" stroke-miterlimit="10" d="M 221.878347 153.00005 L 219.881165 153.669405 L 220.381821 153.00005 L 219.881165 152.330695 Z M 221.878347 153.00005 " transform="matrix(0.717808, 0, 0, 0.717808, 0.358904, 0.358904)"/>
<path fill="none" stroke-width="1" stroke-linecap="butt" stroke-linejoin="miter" stroke="rgb(83.918762%, 84.709167%, 85.099792%)" stroke-opacity="1" stroke-miterlimit="10" d="M 222.999382 109.622559 L 222.999382 147.378554 " transform="matrix(0.717808, 0, 0, 0.717808, 0.358904, 0.358904)"/>
<path fill-rule="nonzero" fill="rgb(83.918762%, 84.709167%, 85.099792%)" fill-opacity="1" stroke-width="1" stroke-linecap="butt" stroke-linejoin="miter" stroke="rgb(83.918762%, 84.709167%, 85.099792%)" stroke-opacity="1" stroke-miterlimit="10" d="M 222.999382 108.120591 L 223.668737 110.117773 L 222.999382 109.622559 L 222.330026 110.117773 Z M 222.999382 108.120591 " transform="matrix(0.717808, 0, 0, 0.717808, 0.358904, 0.358904)"/>
<path fill-rule="nonzero" fill="rgb(83.918762%, 84.709167%, 85.099792%)" fill-opacity="1" stroke-width="1" stroke-linecap="butt" stroke-linejoin="miter" stroke="rgb(83.918762%, 84.709167%, 85.099792%)" stroke-opacity="1" stroke-miterlimit="10" d="M 222.999382 148.880522 L 222.330026 146.877898 L 222.999382 147.378554 L 223.668737 146.877898 Z M 222.999382 148.880522 " transform="matrix(0.717808, 0, 0, 0.717808, 0.358904, 0.358904)"/>
<path fill="none" stroke-width="1" stroke-linecap="butt" stroke-linejoin="miter" stroke="rgb(83.918762%, 84.709167%, 85.099792%)" stroke-opacity="1" stroke-miterlimit="10" d="M 159.519462 149.549877 L 119.450654 89.17729 " transform="matrix(0.717808, 0, 0, 0.717808, 0.358904, 0.358904)"/>
<path fill-rule="nonzero" fill="rgb(83.918762%, 84.709167%, 85.099792%)" fill-opacity="1" stroke-width="1" stroke-linecap="butt" stroke-linejoin="miter" stroke="rgb(83.918762%, 84.709167%, 85.099792%)" stroke-opacity="1" stroke-miterlimit="10" d="M 118.618041 87.931092 L 120.560805 89.041242 L 119.450654 89.17729 L 118.890137 90.151393 Z M 118.618041 87.931092 " transform="matrix(0.717808, 0, 0, 0.717808, 0.358904, 0.358904)"/>
<path fill="none" stroke-width="1" stroke-linecap="butt" stroke-linejoin="miter" stroke="rgb(0%, 0%, 0%)" stroke-opacity="1" stroke-miterlimit="10" d="M 102.99975 188.998307 L 233.001618 98.999944 " transform="matrix(0.717808, 0, 0, 0.717808, 0.358904, 0.358904)"/>
<path fill-rule="nonzero" fill="rgb(83.918762%, 84.709167%, 85.099792%)" fill-opacity="1" stroke-width="8.916031" stroke-linecap="butt" stroke-linejoin="miter" stroke="rgb(83.918762%, 84.709167%, 85.099792%)" stroke-opacity="0.1676" stroke-miterlimit="4" d="M 246.902354 -948.982342 L 246.902354 1450.103366 L 516.052872 1450.103366 L 516.052872 1387.992993 L 308.923995 1387.992993 L 308.923995 -886.871969 L 516.052872 -886.871969 L 516.052872 -948.982342 Z M 246.902354 -948.982342 " transform="matrix(0.0133522, 0, 0, -0.0134589, 53.840031, 50.387895)"/>
<path fill-rule="nonzero" fill="rgb(83.918762%, 84.709167%, 85.099792%)" fill-opacity="1" stroke-width="8.916031" stroke-linecap="butt" stroke-linejoin="miter" stroke="rgb(83.918762%, 84.709167%, 85.099792%)" stroke-opacity="0.1676" stroke-miterlimit="4" d="M 84.010857 237.047416 C 84.010857 237.047416 84.010857 241.400947 84.010857 250.108008 C 84.010857 258.524835 88.691736 265.200248 98.053493 270.13425 L 679.067547 270.13425 C 689.014414 264.619778 693.987847 257.944364 693.987847 250.108008 C 693.987847 241.981417 689.014414 235.306004 679.067547 230.081767 L 98.053493 230.081767 C 88.691736 234.725533 84.010857 241.400947 84.010857 250.108008 Z M 84.010857 237.047416 " transform="matrix(0.0133522, 0, 0, -0.0134589, 60.889989, 40.959929)"/>
<path fill-rule="nonzero" fill="rgb(83.918762%, 84.709167%, 85.099792%)" fill-opacity="1" stroke-width="8.916031" stroke-linecap="butt" stroke-linejoin="miter" stroke="rgb(83.918762%, 84.709167%, 85.099792%)" stroke-opacity="0.1676" stroke-miterlimit="4" d="M 310.936884 42.879942 C 300.990017 34.463116 286.362271 24.885348 267.053647 15.017345 C 247.745023 4.859106 227.266179 -0.0748952 205.909671 -0.0748952 C 164.074318 -0.0748952 130.430504 15.017345 104.978226 44.91159 C 79.525949 75.09607 66.653533 113.407141 66.068423 160.135038 C 66.068423 230.081767 91.5207 294.223787 143.010365 353.141571 C 194.207474 411.769119 251.255682 441.373128 313.862433 441.953599 C 345.458363 441.953599 374.4213 425.990653 401.043796 394.06476 L 403.969346 398.128056 C 405.43212 399.869468 406.894895 401.901116 408.942779 403.932763 C 410.990663 405.964411 413.916213 408.57653 418.011981 412.059354 C 422.10775 415.251943 426.203519 417.573827 430.884397 419.025003 C 435.565276 420.47618 441.123819 421.346887 446.974917 421.927357 C 456.336675 421.927357 463.943102 419.025003 470.086755 412.93006 C 475.937854 407.125353 479.448513 400.740174 480.033622 394.06476 C 480.033622 383.906522 461.017553 303.221084 422.985415 152.008448 C 384.953276 0.795811 365.059542 -76.697037 363.011658 -79.889627 C 351.016907 -115.878815 325.272074 -145.773059 286.069716 -168.99189 C 246.574803 -192.210721 201.521347 -204.400608 150.909347 -204.981078 C 56.999221 -204.981078 9.89788 -182.342718 9.89788 -137.065998 C 9.89788 -119.651875 16.041533 -104.269399 28.036285 -90.918571 C 40.031036 -77.567743 55.243891 -70.89233 73.967406 -70.89233 C 83.914273 -70.89233 93.27603 -74.084919 102.052677 -79.889627 C 110.53677 -85.98457 115.217648 -96.433044 116.095313 -110.944813 C 116.095313 -117.620227 115.217648 -124.005405 114.047429 -130.100348 C 112.584654 -135.905056 110.244215 -140.548822 107.026111 -144.031647 C 103.808007 -147.224236 100.882458 -150.707061 99.127128 -153.89965 C 97.079244 -157.382475 94.738804 -159.994593 92.10581 -162.026241 L 90.057926 -164.057889 L 90.935591 -164.057889 C 97.664354 -166.089536 117.558088 -166.960243 150.909347 -166.960243 C 176.361625 -166.960243 196.255359 -162.896947 210.883104 -155.060592 C 226.388514 -147.804707 240.723705 -136.775762 253.888676 -121.973758 C 267.346202 -107.461988 276.707959 -91.789277 281.973948 -74.955625 C 286.069716 -62.475503 291.335705 -41.578555 298.064468 -13.135488 C 306.54856 19.08064 310.936884 37.655705 310.936884 42.879942 Z M 384.075612 327.891092 L 379.979843 338.920037 C 377.931958 346.466157 376.469184 351.400158 375.006409 354.012277 C 373.543635 356.624395 371.788305 361.268161 368.862756 367.943575 C 366.229762 374.618989 363.011658 379.262755 358.915889 381.874874 C 355.112675 384.777228 350.724352 388.260052 346.043473 392.903819 C 341.362595 397.547585 335.218941 400.740174 327.905069 401.901116 C 320.591196 403.352293 313.277323 404.222999 305.96345 405.093705 C 276.707959 405.093705 248.330133 387.389346 221.122526 351.980629 C 200.936237 325.859444 184.260607 286.387432 171.095636 232.98412 C 157.63811 179.580809 150.909347 140.979503 150.909347 116.889966 C 150.909347 64.357361 171.680746 37.945941 212.930989 37.945941 C 250.378017 37.945941 286.947381 61.455007 322.931635 107.892669 L 331.123173 118.050907 Z M 384.075612 327.891092 " transform="matrix(0.0133522, 0, 0, -0.0134589, 71.277998, 40.959929)"/>
<path fill-rule="nonzero" fill="rgb(83.918762%, 84.709167%, 85.099792%)" fill-opacity="1" stroke-width="8.916031" stroke-linecap="butt" stroke-linejoin="miter" stroke="rgb(83.918762%, 84.709167%, 85.099792%)" stroke-opacity="0.1676" stroke-miterlimit="4" d="M 212.923763 577.978446 L 200.051347 573.044445 C 190.68959 569.56162 177.232064 566.369031 159.971324 562.886206 C 142.710585 559.693617 123.401961 557.371734 102.045452 555.920557 L 83.029383 555.920557 L 83.029383 602.067984 L 102.045452 602.067984 C 133.348828 603.228925 162.311764 608.453162 188.934261 616.869988 C 215.556758 625.57705 234.280272 633.703641 245.104804 640.959525 C 255.63678 648.21541 264.998538 655.76153 272.89752 663.017415 C 274.360295 665.049063 278.456063 665.919769 284.892271 665.919769 C 291.035925 665.919769 296.594468 663.888121 301.860456 660.115061 L 301.860456 360.882377 L 303.030676 61.069222 C 307.711555 56.425456 311.807323 53.232867 315.025427 52.071925 C 318.243531 50.620749 326.435069 49.459807 339.01493 48.00863 C 351.594791 46.557453 372.36619 45.976982 401.036571 45.976982 L 427.073958 45.976982 L 427.073958 0.119791 L 415.956872 0.119791 C 401.914236 1.861204 348.961797 3.022145 257.099555 3.022145 C 166.407532 3.022145 114.040203 1.861204 99.997568 0.119791 L 88.002816 0.119791 L 88.002816 45.976982 L 114.040203 45.976982 C 128.667949 45.976982 141.24781 45.976982 152.072342 45.976982 C 162.604319 45.976982 171.088411 46.267218 176.939509 47.137924 C 183.083162 47.718395 188.349151 48.589101 193.030029 50.040278 C 197.710908 51.201219 200.343902 52.071925 200.929012 52.071925 C 201.806677 52.071925 203.562006 53.523102 207.072665 57.005927 C 210.290769 60.198516 212.338654 61.649693 212.923763 61.069222 Z M 212.923763 577.978446 " transform="matrix(0.0133522, 0, 0, -0.0134589, 65.930438, 59.802394)"/>
<path fill-rule="nonzero" fill="rgb(83.918762%, 84.709167%, 85.099792%)" fill-opacity="1" stroke-width="8.916031" stroke-linecap="butt" stroke-linejoin="miter" stroke="rgb(83.918762%, 84.709167%, 85.099792%)" stroke-opacity="0.1676" stroke-miterlimit="4" d="M 10.932914 1387.992993 L 10.932914 1450.103366 L 280.083432 1450.103366 L 280.083432 -948.982342 L 10.932914 -948.982342 L 10.932914 -886.871969 L 218.061791 -886.871969 L 218.061791 1387.992993 Z M 10.932914 1387.992993 " transform="matrix(0.0133522, 0, 0, -0.0134589, 77.64699, 50.387895)"/>
<path fill-rule="nonzero" fill="rgb(0%, 0%, 0%)" fill-opacity="1" stroke-width="8.798715" stroke-linecap="butt" stroke-linejoin="miter" stroke="rgb(0%, 0%, 0%)" stroke-opacity="0.1704" stroke-miterlimit="4" d="M 118.001292 -161.894653 C 119.435469 -161.894653 121.443317 -162.753903 124.024835 -163.899569 C 126.606354 -165.331651 130.335214 -166.190901 134.924581 -167.05015 C 139.800783 -167.622983 143.529643 -167.9094 146.971668 -167.9094 C 155.57673 -167.9094 163.608122 -163.613152 171.065842 -155.020657 C 178.236727 -146.428162 183.6866 -136.690001 187.128625 -126.092591 C 193.725839 -108.048351 204.91242 -57.066214 220.975203 27.140237 C 237.037986 111.060271 252.240262 190.970474 266.868868 266.870847 C 281.784309 343.057636 288.955195 381.437447 288.955195 382.01028 L 288.955195 384.874445 L 241.914188 384.874445 C 210.649128 384.874445 194.012675 385.733694 192.004827 386.87936 C 189.423308 388.884276 187.989131 392.321274 187.989131 396.903938 L 194.873181 424.972755 C 196.307358 428.409753 198.888877 430.128252 202.904572 430.128252 C 206.920268 430.128252 222.696215 430.414668 249.945579 430.987501 C 282.071145 430.987501 298.133928 431.273918 298.133928 432.133167 C 298.133928 433.278833 301.002282 449.89099 307.025825 481.969638 C 313.049369 514.048286 317.065064 533.238191 319.072912 540.112187 C 343.740757 650.096123 392.215941 705.088091 465.072135 705.088091 C 489.73998 703.656009 510.105293 696.20918 525.881241 683.034021 C 541.944024 669.572445 549.975415 652.101039 549.975415 630.046968 C 549.975415 605.987982 543.091365 588.802992 529.03643 577.919165 C 514.981495 567.321755 500.92656 561.593425 486.871625 561.020592 C 457.614414 561.020592 442.985808 575.055 442.985808 603.123817 C 442.985808 615.726143 446.714668 626.60997 453.885554 636.061715 C 461.343274 645.227043 469.374666 652.387455 477.979728 656.970119 L 486.871625 662.125616 C 476.258715 666.135447 466.219476 668.140363 457.040743 668.140363 C 449.009352 668.140363 441.264796 664.703365 434.093911 658.115785 C 426.63619 651.241789 421.759988 642.076461 418.891634 630.046968 C 414.302267 610.570646 409.13923 584.793161 403.115687 552.14168 C 397.092143 519.203783 391.64227 491.707799 387.052904 469.080895 C 382.463537 446.453992 379.882019 434.424499 379.882019 432.992417 C 379.882019 431.560334 398.239485 430.987501 434.954417 430.987501 C 465.072135 430.987501 482.282259 430.701085 486.871625 430.128252 C 491.747827 429.269002 495.476688 427.264087 498.058206 424.113505 C 498.631877 421.24934 498.058206 415.807427 496.050359 406.928515 C 494.042511 398.33602 492.321498 392.894107 490.887321 390.889191 C 489.73998 387.73861 486.58479 386.020111 481.995424 386.020111 C 477.406057 386.020111 459.335426 385.733694 428.070367 384.874445 L 372.137463 384.874445 L 348.903795 262.861016 C 317.065064 97.598695 294.691903 -5.797661 282.071145 -47.041637 C 264.000514 -103.752104 240.766846 -145.568913 212.083305 -173.064897 C 187.41546 -194.259718 163.034451 -204.857128 138.940277 -204.857128 C 117.714456 -204.857128 98.209649 -198.555965 80.999524 -185.953639 C 63.7894 -173.351313 54.897502 -155.307074 54.897502 -132.107337 C 54.897502 -107.475518 62.068387 -89.431279 76.123322 -77.974619 C 89.891422 -66.804375 103.946357 -61.076045 118.001292 -61.076045 C 147.258503 -61.076045 161.887109 -75.110454 161.887109 -102.892854 C 161.887109 -115.781597 158.445084 -126.665424 150.987364 -136.117168 C 143.529643 -145.282496 135.785087 -152.442909 126.893189 -157.025573 Z M 118.001292 -161.894653 " transform="matrix(0.0136184, 0, 0, -0.0136384, 152.193788, 66.217804)"/>
<path fill-rule="nonzero" fill="rgb(0%, 0%, 0%)" fill-opacity="1" stroke-width="8.798715" stroke-linecap="butt" stroke-linejoin="miter" stroke="rgb(0%, 0%, 0%)" stroke-opacity="0.1704" stroke-miterlimit="4" d="M 94.057429 249.972273 C 94.057429 296.08533 97.212619 339.620638 104.096669 380.864614 C 110.693883 422.395006 118.438439 457.910652 127.043501 487.984384 C 135.648564 518.058117 147.982486 547.2726 164.045269 575.91425 C 180.108052 604.5559 192.72881 626.896387 201.907543 642.935711 C 211.373111 658.975035 225.428046 676.446441 244.072347 695.063514 C 262.716649 713.680586 273.616394 725.137246 277.058419 728.860661 C 280.213609 732.870492 288.531836 740.030904 302.0131 750.055482 L 318.936389 750.055482 C 328.401957 750.055482 332.991324 746.9049 332.991324 740.890154 C 332.991324 738.885238 327.254616 732.011242 316.068035 719.981749 C 304.594618 707.952256 291.113354 690.194433 275.050571 666.994697 C 258.987789 643.79496 242.63817 614.866894 226.001717 581.069747 C 209.365263 546.986183 195.310328 500.873127 184.123747 443.016994 C 172.650331 384.874445 166.913623 320.717149 166.913623 249.972273 C 166.913623 179.227398 172.650331 115.356518 184.123747 58.073219 C 195.310328 0.789919 209.078428 -45.609554 225.141211 -81.1252 C 240.917158 -116.35443 257.266776 -144.99608 273.90323 -167.05015 C 290.539683 -189.104221 304.594618 -206.575627 316.068035 -220.037203 C 327.254616 -233.212362 332.991324 -240.372774 332.991324 -240.945607 C 332.991324 -246.960354 328.115122 -250.110935 318.075882 -250.110935 L 302.0131 -250.110935 L 273.90323 -226.051949 C 211.373111 -169.341482 165.766281 -98.596607 137.082741 -14.103739 C 108.3992 70.675545 94.057429 158.60541 94.057429 249.972273 Z M 94.057429 249.972273 " transform="matrix(0.0136184, 0, 0, -0.0136384, 159.683929, 66.217804)"/>
<path fill-rule="nonzero" fill="rgb(0%, 0%, 0%)" fill-opacity="1" stroke-width="8.798715" stroke-linecap="butt" stroke-linejoin="miter" stroke="rgb(0%, 0%, 0%)" stroke-opacity="0.1704" stroke-miterlimit="4" d="M 52.127884 288.924917 C 56.717251 316.993734 74.787882 349.358799 106.052941 386.020111 C 137.318 422.681423 176.04078 441.298495 221.934445 441.871328 C 245.454949 441.871328 266.680769 436.142998 285.898741 424.113505 C 305.403549 412.084012 319.745319 396.903938 328.924052 378.859698 C 357.033922 420.962924 390.593665 441.871328 429.890116 441.871328 C 454.557961 441.871328 476.070616 434.710916 494.141247 420.103674 C 511.925042 405.210016 521.390611 385.733694 521.964281 361.101875 C 521.964281 341.625553 517.374915 325.872646 507.909346 314.129569 C 498.730613 302.100076 489.55188 294.653247 480.946818 292.075499 C 472.341756 289.211334 464.5972 288.065668 457.999986 288.065668 C 445.379228 288.065668 435.053153 291.789082 427.021762 298.949495 C 418.99037 306.396324 414.974674 316.134485 414.974674 327.877561 C 414.974674 358.524127 431.611128 379.718948 464.884035 390.889191 C 457.71315 399.768103 444.231886 404.06435 425.013914 404.06435 C 416.408852 404.06435 410.098473 403.205101 406.082777 402.059435 C 380.554426 391.462024 361.910124 369.407954 349.863037 335.897223 C 309.992915 188.679142 289.914437 102.754192 289.914437 78.122374 C 289.914437 59.218885 295.36431 46.043726 305.97722 38.024064 C 316.59013 30.004402 328.350382 25.994571 340.971139 25.994571 C 365.638984 25.994571 390.019994 36.878398 414.114168 58.932468 C 437.921507 80.986539 454.271125 107.909689 462.876187 139.988337 C 464.884035 146.575917 466.891883 150.299331 468.899731 150.872164 C 470.907579 151.731414 476.357452 152.304247 484.962514 152.87708 L 488.97821 152.87708 C 499.017449 152.87708 503.893651 150.299331 503.893651 144.857418 C 503.893651 144.284585 503.31998 140.56117 501.885803 133.973591 C 491.272893 95.880196 470.620743 62.369466 439.929355 32.868567 C 409.237966 3.654084 373.670376 -10.953158 332.939748 -10.953158 C 286.472412 -10.953158 250.904822 9.955247 227.097483 52.058472 C 199.561284 10.52808 168.296224 -10.093908 133.015469 -10.093908 L 126.991926 -10.093908 C 94.292689 -10.093908 71.059021 -1.214997 57.004086 15.969993 C 42.949151 33.4414 35.778266 51.772056 34.91776 70.961961 C 34.91776 92.443198 41.228139 109.628188 54.135732 123.089764 C 66.75649 136.264923 81.671931 143.138919 98.882056 143.138919 C 127.565597 143.138919 141.907367 129.10451 141.907367 101.035693 C 141.907367 87.574118 137.891671 76.117458 129.86028 66.092881 C 122.115724 56.068303 114.371168 49.194307 106.913447 46.043726 C 99.742562 42.606728 95.440031 40.888229 94.005854 40.888229 L 91.1375 40.028979 C 91.1375 39.456146 92.858512 38.024064 96.874208 36.019148 C 100.889904 34.014233 106.339776 31.722901 112.936991 28.858736 C 119.534205 26.280987 126.131419 25.421738 131.868128 25.994571 C 155.962302 25.994571 176.614451 40.888229 194.111411 70.961961 C 200.134955 81.559372 207.592675 104.472691 217.058244 139.129088 C 226.236977 173.785484 235.702545 209.587547 244.881278 247.108108 C 254.346846 284.342253 259.796719 306.396324 260.944061 312.983903 C 264.386086 331.028143 266.107098 343.916885 266.107098 351.936547 C 266.107098 370.55362 260.944061 384.015195 250.904822 392.034857 C 240.865582 400.054519 229.679001 404.06435 217.058244 404.06435 C 190.382551 404.06435 165.42787 393.46694 141.907367 371.985702 C 118.673699 350.790881 102.324081 323.294897 92.858512 290.070583 C 91.711171 284.055837 89.990158 280.618839 87.98231 280.046006 C 85.974462 279.473173 80.52459 278.613923 71.919528 278.04109 L 57.864593 278.04109 C 54.135732 282.050921 52.127884 285.774336 52.127884 288.924917 Z M 52.127884 288.924917 " transform="matrix(0.0136184, 0, 0, -0.0136384, 164.981506, 66.217804)"/>
<path fill-rule="nonzero" fill="rgb(0%, 0%, 0%)" fill-opacity="1" stroke-width="12.445141" stroke-linecap="butt" stroke-linejoin="miter" stroke="rgb(0%, 0%, 0%)" stroke-opacity="0.1204" stroke-miterlimit="4" d="M 95.955124 585.177593 C 133.280241 639.057923 184.399424 666.200645 248.906965 666.200645 C 280.957881 666.200645 313.008797 657.28811 345.059713 639.868153 C 377.11063 622.853312 403.075929 592.064553 422.955611 547.906989 C 447.703787 492.811314 459.875021 416.649645 459.875021 319.827098 C 459.875021 216.522707 445.675248 137.525231 416.869994 82.834671 C 403.481637 54.881718 385.224786 32.600379 362.099441 15.990653 C 338.568389 -0.619073 318.282999 -11.152069 300.837563 -14.798107 C 283.797835 -18.849259 266.758108 -21.279951 250.124088 -22.090181 C 232.678652 -22.090181 215.233217 -20.064605 198.193489 -16.013452 C 180.748054 -11.9623 160.462664 -1.429303 136.931611 15.990653 C 113.806267 33.410609 95.143708 55.691949 82.161058 82.834671 C 53.355804 137.525231 39.156031 216.522707 39.156031 319.827098 C 39.156031 436.095178 57.81859 524.410304 95.955124 585.177593 Z M 321.122953 596.925936 C 300.837563 618.397045 277.306511 628.930041 250.124088 628.930041 C 222.13025 628.930041 198.193489 618.397045 177.908099 596.925936 C 161.27408 579.50598 150.319969 555.604179 145.045767 524.81542 C 139.771566 494.431775 136.931611 430.423564 136.931611 333.195902 C 136.931611 227.865934 139.771566 158.186109 145.045767 124.966658 C 150.319969 91.747207 162.491203 65.414715 181.153762 45.969182 C 199.816321 26.118535 222.535957 15.990653 250.124088 15.990653 C 276.495095 15.990653 299.214732 26.118535 317.877291 45.969182 C 337.351265 65.81983 349.522499 94.177898 353.985285 129.828041 C 358.853779 165.883299 361.288025 233.537548 362.099441 333.195902 C 362.099441 429.613333 359.259486 493.216429 353.985285 524.005189 C 348.711084 554.793949 337.756973 579.100864 321.122953 596.925936 Z M 321.122953 596.925936 " transform="matrix(0.00962823, 0, 0, -0.00964232, 173.220653, 68.263562)"/>
<path fill-rule="nonzero" fill="rgb(0%, 0%, 0%)" fill-opacity="1" stroke-width="8.798715" stroke-linecap="butt" stroke-linejoin="miter" stroke="rgb(0%, 0%, 0%)" stroke-opacity="0.1704" stroke-miterlimit="4" d="M 60.073185 748.909816 L 64.08888 750.055482 C 67.24407 750.055482 70.686095 750.055482 74.12812 750.055482 L 85.888371 750.055482 L 113.998241 725.996496 C 176.52836 669.286029 222.422025 598.541153 251.105566 514.048286 C 279.789107 429.269002 294.130877 341.339137 294.130877 249.972273 C 294.130877 204.718466 290.688852 160.896742 284.091638 119.079933 C 277.207588 76.976708 269.749867 41.461062 260.85797 11.960162 C 252.252907 -17.254321 239.918985 -46.75522 224.143038 -75.969703 C 208.080255 -105.470603 195.459497 -127.524673 185.993928 -142.991164 C 176.52836 -158.457655 163.047096 -175.356229 144.976465 -193.973301 C 126.905834 -212.590374 116.292924 -223.760617 113.137735 -226.911199 C 109.69571 -230.348197 101.951154 -236.64936 89.904067 -246.101104 C 87.896219 -248.10602 86.748877 -249.251686 85.888371 -250.110935 L 74.12812 -250.110935 C 68.678247 -250.110935 64.949387 -250.110935 62.941539 -250.110935 C 60.933691 -250.110935 59.212678 -248.965269 58.065337 -246.960354 C 56.63116 -244.955438 55.770654 -242.091273 54.910147 -238.081442 C 55.770654 -237.222193 59.212678 -232.925945 66.096728 -224.906283 C 169.357475 -117.786512 220.987848 40.601812 220.987848 249.972273 C 220.987848 459.342734 169.357475 617.731059 66.096728 725.137246 C 59.212678 732.870492 55.770654 737.453156 54.910147 738.025989 C 54.910147 743.467902 56.63116 746.9049 60.073185 748.909816 Z M 60.073185 748.909816 " transform="matrix(0.0136184, 0, 0, -0.0136384, 178.717053, 66.217804)"/>
<path fill-rule="nonzero" fill="rgb(0%, 0%, 0%)" fill-opacity="1" stroke-width="8.798715" stroke-linecap="butt" stroke-linejoin="miter" stroke="rgb(0%, 0%, 0%)" stroke-opacity="0.1704" stroke-miterlimit="4" d="M 56.103419 237.083531 C 56.103419 237.083531 56.103419 241.379778 56.103419 249.972273 C 56.103419 258.564768 60.692786 265.438764 69.871519 270.021428 L 369.040848 270.021428 L 369.040848 420.103674 L 369.901355 569.899503 C 376.785404 578.778415 383.095783 583.074662 389.119327 583.074662 C 397.724389 583.074662 404.321603 577.919165 408.91097 567.894588 L 408.91097 270.021428 L 706.932958 270.021428 C 716.972197 264.579515 722.135235 257.991935 722.135235 249.972273 C 722.135235 241.952611 716.972197 235.365032 706.932958 229.923118 L 408.91097 229.923118 L 408.91097 -67.950041 C 403.747933 -77.401786 397.724389 -81.98445 391.127175 -81.98445 L 387.111479 -81.98445 C 379.080088 -81.98445 373.056544 -77.401786 369.040848 -67.950041 L 369.040848 229.923118 L 69.871519 229.923118 C 60.692786 234.792199 56.103419 241.379778 56.103419 249.972273 Z M 56.103419 237.083531 " transform="matrix(0.0136184, 0, 0, -0.0136384, 187.040647, 66.217804)"/>
<path fill-rule="nonzero" fill="rgb(0%, 0%, 0%)" fill-opacity="1" stroke-width="8.798715" stroke-linecap="butt" stroke-linejoin="miter" stroke="rgb(0%, 0%, 0%)" stroke-opacity="0.1704" stroke-miterlimit="4" d="M 332.894999 -232.066696 C 332.321328 -236.64936 330.31348 -240.659191 326.871455 -244.096189 C 323.716266 -247.24677 319.126899 -249.251686 313.103356 -250.110935 C 306.219306 -250.110935 300.769433 -246.673937 295.893231 -240.086358 C 293.885384 -235.217277 262.620324 -153.302158 202.098053 5.945416 C 141.288947 165.192989 110.597558 246.535275 110.023888 249.972273 C 109.450217 253.409271 139.567934 334.751557 200.950712 493.999131 C 262.333489 653.246705 293.885384 735.44824 295.893231 740.030904 C 297.901079 743.467902 301.343104 746.332067 305.932471 748.909816 L 309.08766 750.055482 C 311.095508 750.055482 312.24285 750.055482 313.103356 750.055482 C 324.863608 750.055482 331.747657 744.040735 332.894999 732.011242 C 332.894999 728.574244 303.064117 647.804791 243.115516 489.13005 C 182.30641 331.028143 151.901857 251.404356 151.901857 249.972273 C 151.901857 248.540191 182.30641 168.916404 243.115516 11.100913 C 303.064117 -147.573828 332.894999 -228.629698 332.894999 -232.066696 Z M 332.894999 -232.066696 " transform="matrix(0.0136184, 0, 0, -0.0136384, 200.661803, 66.217804)"/>
<path fill-rule="nonzero" fill="rgb(0%, 0%, 0%)" fill-opacity="1" stroke-width="8.798715" stroke-linecap="butt" stroke-linejoin="miter" stroke="rgb(0%, 0%, 0%)" stroke-opacity="0.1704" stroke-miterlimit="4" d="M 311.043932 42.893144 C 301.004693 34.300649 286.376087 25.135321 266.87128 15.110744 C 247.653307 5.086166 227.287993 -0.0693309 206.062173 -0.0693309 C 163.897368 -0.0693309 130.337626 15.110744 105.09611 44.89806 C 79.567759 74.971792 66.660165 113.351603 66.086495 160.037492 C 66.086495 229.923118 91.614846 294.366831 142.958384 353.082213 C 194.301922 411.797596 251.382168 441.298495 313.912286 441.871328 C 345.464181 441.871328 374.434557 426.118421 401.11025 394.039773 L 403.978604 398.049604 C 405.412781 400.054519 407.133794 402.059435 409.141642 404.06435 C 410.862654 406.069266 414.017844 408.647014 418.033539 412.084012 C 422.049235 415.234594 426.351766 417.525926 430.941133 418.958008 C 435.530499 420.390091 440.980372 421.24934 447.003915 422.10859 C 456.469484 422.10859 463.927204 418.958008 469.950748 412.943262 C 475.974291 406.928515 479.416316 400.627352 479.989987 394.039773 C 479.989987 384.015195 461.05885 303.245742 422.909741 152.01783 C 385.047467 0.789919 364.968989 -76.542536 362.961141 -79.979534 C 350.914054 -116.068013 325.385703 -145.568913 286.089252 -169.055066 C 246.792801 -192.254802 201.759642 -204.284295 150.989775 -204.857128 C 56.907762 -204.857128 9.866755 -182.230225 9.866755 -136.976418 C 9.866755 -119.791428 15.890298 -104.324937 27.937385 -90.863361 C 39.984473 -77.688202 55.473585 -71.100623 74.117886 -71.100623 C 83.87029 -71.100623 93.335858 -73.964788 101.940921 -79.979534 C 110.545983 -85.994281 115.422185 -96.305275 115.995855 -110.912516 C 115.995855 -117.786512 115.422185 -124.087675 113.988008 -130.102422 C 112.553831 -136.117168 110.259147 -140.699832 107.103958 -144.13683 C 103.661933 -147.287412 101.080414 -150.72441 99.072566 -153.874991 C 97.064719 -157.311989 94.770035 -159.889738 91.901681 -161.894653 L 89.893833 -163.899569 L 91.041175 -163.899569 C 97.638389 -165.904484 117.716868 -167.05015 150.989775 -167.05015 C 176.231291 -167.05015 196.309769 -163.040319 210.938375 -155.020657 C 226.427487 -147.573828 240.769258 -136.690001 253.963686 -122.08276 C 267.44495 -107.475518 276.623683 -91.722611 282.073556 -75.110454 C 286.089252 -62.221711 291.252289 -41.599723 298.136339 -12.958073 C 306.741401 19.120575 311.043932 37.737647 311.043932 42.893144 Z M 383.900126 327.877561 L 379.88443 339.047805 C 377.876582 346.208217 376.442405 351.363714 375.008228 353.941463 C 373.574051 356.805628 371.566203 361.388292 368.984685 367.975871 C 366.403166 374.563451 362.961141 379.432531 358.945445 382.01028 C 354.92975 384.588028 350.627219 388.311443 346.037852 392.894107 C 341.448486 397.763187 335.424942 400.627352 327.967221 402.059435 C 320.796336 403.205101 313.338616 404.350767 305.880895 404.9236 C 276.623683 404.9236 248.226978 387.452193 220.977614 351.936547 C 200.899136 325.872646 184.262682 286.347169 171.068254 233.0737 C 157.58699 179.800231 150.989775 141.134003 150.989775 117.075017 C 150.989775 64.374382 171.641924 38.024064 212.946223 38.024064 C 250.234826 38.024064 286.949758 61.2238 323.091019 107.909689 L 331.122411 117.934267 Z M 383.900126 327.877561 " transform="matrix(0.0136184, 0, 0, -0.0136384, 205.95938, 66.217804)"/>
<path fill-rule="nonzero" fill="rgb(0%, 0%, 0%)" fill-opacity="1" stroke-width="8.798715" stroke-linecap="butt" stroke-linejoin="miter" stroke="rgb(0%, 0%, 0%)" stroke-opacity="0.1704" stroke-miterlimit="4" d="M 78.141837 34.873482 C 78.141837 34.873482 78.141837 43.465977 78.141837 60.078134 C 78.141837 76.690291 83.304874 91.011116 93.917784 103.040609 C 104.530694 115.070102 118.872465 121.084848 136.943095 121.084848 C 155.587397 121.084848 172.22385 112.77877 187.139291 95.880196 C 201.767897 79.26804 209.225618 50.053557 210.086124 7.950331 C 210.086124 -15.249405 206.930935 -37.876309 200.907391 -59.930379 C 194.883847 -81.98445 187.999798 -100.887939 179.968406 -116.927263 C 171.937015 -132.966587 163.331953 -146.714579 153.866384 -157.884822 C 144.687651 -169.341482 136.65626 -178.220394 130.059045 -185.09439 C 123.461831 -191.681969 118.872465 -194.546134 116.864617 -193.973301 C 114.283098 -193.973301 109.980567 -191.109136 103.957023 -185.09439 C 97.93348 -179.079643 95.065126 -174.783396 95.065126 -171.919231 C 95.065126 -169.341482 98.793986 -163.899569 105.964871 -155.879907 C 113.422592 -147.860245 121.740819 -138.122084 130.919552 -126.092591 C 140.38512 -114.063098 148.990182 -97.450941 157.021574 -75.969703 C 165.052965 -54.774882 170.216002 -30.42948 173.084357 -2.933496 L 173.084357 9.095997 L 171.937015 7.950331 C 170.789673 7.377498 169.068661 6.804665 167.060813 5.945416 C 165.052965 5.372583 163.045117 4.226917 161.037269 3.081251 C 159.029422 1.649168 155.874232 1.076335 151.858536 1.076335 C 148.129676 1.076335 144.11398 0.789919 140.098285 -0.0693309 C 122.027654 -0.0693309 107.399048 5.658999 95.925632 17.115659 Z M 78.141837 34.873482 " transform="matrix(0.0136184, 0, 0, -0.0136384, 212.455362, 66.217804)"/>
<path fill-rule="nonzero" fill="rgb(0%, 0%, 0%)" fill-opacity="1" stroke-width="8.798715" stroke-linecap="butt" stroke-linejoin="miter" stroke="rgb(0%, 0%, 0%)" stroke-opacity="0.1704" stroke-miterlimit="4" d="M 51.933646 288.924917 C 56.809848 316.993734 74.593643 349.358799 105.858703 386.020111 C 137.410598 422.681423 176.133378 441.298495 222.027043 441.871328 C 245.260711 441.871328 266.773366 436.142998 285.991339 424.113505 C 305.209311 412.084012 319.551081 396.903938 329.01665 378.859698 C 357.12652 420.962924 390.686262 441.871328 429.982713 441.871328 C 454.650558 441.871328 475.876378 434.710916 493.947009 420.103674 C 512.017639 405.210016 521.196372 385.733694 522.056879 361.101875 C 522.056879 341.625553 517.467512 325.872646 508.001944 314.129569 C 498.536375 302.100076 489.644478 294.653247 481.039415 292.075499 C 472.434353 289.211334 464.689797 288.065668 458.092583 288.065668 C 445.471825 288.065668 434.858915 291.789082 427.114359 298.949495 C 419.082967 306.396324 415.067272 316.134485 415.067272 327.877561 C 415.067272 358.524127 431.703725 379.718948 464.976633 390.889191 C 457.805747 399.768103 444.324483 404.06435 425.106511 404.06435 C 416.214613 404.06435 409.904234 403.205101 405.888539 402.059435 C 380.647023 391.462024 362.002721 369.407954 349.955634 335.897223 C 310.085513 188.679142 290.007034 102.754192 290.007034 78.122374 C 290.007034 59.218885 295.456907 46.043726 306.069817 38.024064 C 316.682727 30.004402 328.442979 25.994571 341.063737 25.994571 C 365.731582 25.994571 390.112591 36.878398 413.91993 58.932468 C 438.014104 80.986539 454.363723 107.909689 462.968785 139.988337 C 464.976633 146.575917 466.98448 150.299331 468.992328 150.872164 C 471.000176 151.731414 476.450049 152.304247 485.055111 152.87708 L 489.070807 152.87708 C 499.110046 152.87708 503.986248 150.299331 503.986248 144.857418 C 503.986248 144.284585 503.412577 140.56117 501.9784 133.973591 C 491.36549 95.880196 470.713341 62.369466 440.021952 32.868567 C 409.330564 3.654084 373.762973 -10.953158 333.032345 -10.953158 C 286.278174 -10.953158 250.997419 9.955247 226.903245 52.058472 C 199.653881 10.52808 168.388822 -10.093908 133.108067 -10.093908 L 127.084523 -10.093908 C 94.385287 -10.093908 70.864783 -1.214997 57.096684 15.969993 C 43.041749 33.4414 35.584028 51.772056 35.010357 70.961961 C 35.010357 92.443198 41.320736 109.628188 53.941494 123.089764 C 66.562252 136.264923 81.764529 143.138919 98.974653 143.138919 C 127.658194 143.138919 141.999964 129.10451 141.999964 101.035693 C 141.999964 87.574118 137.984268 76.117458 129.952877 66.092881 C 121.921486 56.068303 114.463765 49.194307 107.006044 46.043726 C 99.548324 42.606728 95.245793 40.888229 94.098451 40.888229 L 90.943262 40.028979 C 90.943262 39.456146 92.95111 38.024064 96.966805 36.019148 C 100.982501 34.014233 106.432374 31.722901 113.029588 28.858736 C 119.626802 26.280987 125.937181 25.421738 131.960725 25.994571 C 156.054899 25.994571 176.707048 40.888229 193.917173 70.961961 C 199.940716 81.559372 207.685272 104.472691 216.864005 139.129088 C 226.329574 173.785484 235.795142 209.587547 244.973875 247.108108 C 254.439444 284.342253 259.602481 306.396324 261.036658 312.983903 C 264.191848 331.028143 265.91286 343.916885 265.91286 351.936547 C 265.91286 370.55362 261.036658 384.015195 250.997419 392.034857 C 240.95818 400.054519 229.771599 404.06435 216.864005 404.06435 C 190.475148 404.06435 165.233632 393.46694 141.999964 371.985702 C 118.766296 350.790881 102.416678 323.294897 92.95111 290.070583 C 91.803768 284.055837 90.082755 280.618839 88.074908 280.046006 C 86.06706 279.473173 80.617187 278.613923 72.012125 278.04109 L 57.95719 278.04109 C 53.941494 282.050921 51.933646 285.774336 51.933646 288.924917 Z M 51.933646 288.924917 " transform="matrix(0.0136184, 0, 0, -0.0136384, 218.511495, 66.217804)"/>
<path fill-rule="nonzero" fill="rgb(0%, 0%, 0%)" fill-opacity="1" stroke-width="8.798715" stroke-linecap="butt" stroke-linejoin="miter" stroke="rgb(0%, 0%, 0%)" stroke-opacity="0.1704" stroke-miterlimit="4" d="M 84.10664 237.083531 C 84.10664 237.083531 84.10664 241.379778 84.10664 249.972273 C 84.10664 258.564768 88.696007 265.438764 97.87474 270.021428 L 679.003275 270.021428 C 689.042514 264.579515 693.918716 257.991935 693.918716 249.972273 C 693.918716 241.952611 689.042514 235.365032 679.003275 229.923118 L 97.87474 229.923118 C 88.696007 234.792199 84.10664 241.379778 84.10664 249.972273 Z M 84.10664 237.083531 " transform="matrix(0.0136184, 0, 0, -0.0136384, 229.327255, 66.217804)"/>
<path fill-rule="nonzero" fill="rgb(0%, 0%, 0%)" fill-opacity="1" stroke-width="8.798715" stroke-linecap="butt" stroke-linejoin="miter" stroke="rgb(0%, 0%, 0%)" stroke-opacity="0.1704" stroke-miterlimit="4" d="M 51.97631 288.924917 C 56.565677 316.993734 74.636308 349.358799 105.901367 386.020111 C 137.453262 422.681423 175.889206 441.298495 222.069707 441.871328 C 245.303375 441.871328 266.529195 436.142998 286.034003 424.113505 C 305.251975 412.084012 319.593745 396.903938 329.059314 378.859698 C 356.882348 420.962924 390.728926 441.871328 430.025377 441.871328 C 454.693222 441.871328 475.919042 434.710916 493.989673 420.103674 C 512.060303 405.210016 521.239037 385.733694 522.099543 361.101875 C 522.099543 341.625553 517.223341 325.872646 508.044608 314.129569 C 498.579039 302.100076 489.687142 294.653247 481.08208 292.075499 C 472.190182 289.211334 464.732461 288.065668 458.135247 288.065668 C 445.227654 288.065668 434.901579 291.789082 426.870188 298.949495 C 419.125632 306.396324 415.109936 316.134485 415.109936 327.877561 C 415.109936 358.524127 431.746389 379.718948 465.019297 390.889191 C 457.561576 399.768103 444.367147 404.06435 424.86234 404.06435 C 416.257277 404.06435 409.946899 403.205101 405.931203 402.059435 C 380.689687 391.462024 362.045386 369.407954 349.998298 335.897223 C 310.128177 188.679142 290.049698 102.754192 290.049698 78.122374 C 290.049698 59.218885 295.212736 46.043726 306.112481 38.024064 C 316.725391 30.004402 328.198807 25.994571 341.106401 25.994571 C 365.774246 25.994571 389.86842 36.878398 413.962594 58.932468 C 438.056768 80.986539 454.406387 107.909689 463.011449 139.988337 C 465.019297 146.575917 467.027145 150.299331 469.034992 150.872164 C 471.04284 151.731414 476.205878 152.304247 485.097775 152.87708 L 489.113471 152.87708 C 498.865875 152.87708 504.028912 150.299331 504.028912 144.857418 C 504.028912 144.284585 503.455241 140.56117 502.021064 133.973591 C 491.408154 95.880196 470.756005 62.369466 440.064616 32.868567 C 409.373228 3.654084 373.805637 -10.953158 333.075009 -10.953158 C 286.320838 -10.953158 251.040083 9.955247 226.945909 52.058472 C 199.696545 10.52808 168.431486 -10.093908 132.863895 -10.093908 L 127.127187 -10.093908 C 94.427951 -10.093908 70.907447 -1.214997 57.139348 15.969993 C 43.084413 33.4414 35.626692 51.772056 35.053021 70.961961 C 35.053021 92.443198 41.3634 109.628188 53.984158 123.089764 C 66.604916 136.264923 81.807193 143.138919 99.017317 143.138919 C 127.700858 143.138919 142.042628 129.10451 142.042628 101.035693 C 142.042628 87.574118 138.026933 76.117458 129.995541 66.092881 C 121.96415 56.068303 114.219594 49.194307 107.048709 46.043726 C 99.590988 42.606728 95.288457 40.888229 94.141115 40.888229 L 90.985926 40.028979 C 90.985926 39.456146 92.993774 38.024064 97.009469 36.019148 C 101.025165 34.014233 106.475038 31.722901 113.072252 28.858736 C 119.669466 26.280987 125.979845 25.421738 132.003389 25.994571 C 156.097563 25.994571 176.749713 40.888229 193.959837 70.961961 C 199.98338 81.559372 207.727936 104.472691 216.90667 139.129088 C 226.372238 173.785484 235.550971 209.587547 245.016539 247.108108 C 254.195272 284.342253 259.645145 306.396324 261.079322 312.983903 C 264.234512 331.028143 265.955524 343.916885 265.955524 351.936547 C 265.955524 370.55362 261.079322 384.015195 251.040083 392.034857 C 241.000844 400.054519 229.527427 404.06435 216.90667 404.06435 C 190.230977 404.06435 165.276296 393.46694 142.042628 371.985702 C 118.80896 350.790881 102.459342 323.294897 92.993774 290.070583 C 91.559597 284.055837 90.12542 280.618839 88.117572 280.046006 C 86.109724 279.473173 80.659851 278.613923 72.054789 278.04109 L 57.999854 278.04109 C 53.984158 282.050921 51.97631 285.774336 51.97631 288.924917 Z M 51.97631 288.924917 " transform="matrix(0.0136184, 0, 0, -0.0136384, 242.948414, 66.217804)"/>
<path fill-rule="nonzero" fill="rgb(0%, 0%, 0%)" fill-opacity="1" stroke-width="12.445141" stroke-linecap="butt" stroke-linejoin="miter" stroke="rgb(0%, 0%, 0%)" stroke-opacity="0.1204" stroke-miterlimit="4" d="M 96.14669 585.177593 C 133.471808 639.057923 184.185283 666.200645 249.098531 666.200645 C 281.149447 666.200645 313.200364 657.28811 344.845572 639.868153 C 376.896488 622.853312 402.861788 592.064553 423.147178 547.906989 C 447.489646 492.811314 460.066588 416.649645 460.066588 319.827098 C 460.066588 216.522707 445.866815 137.525231 417.061561 82.834671 C 403.673203 54.881718 385.416352 32.600379 361.8853 15.990653 C 338.759955 -0.619073 318.474565 -11.152069 301.02913 -14.798107 C 283.583694 -18.849259 266.543967 -21.279951 249.909947 -22.090181 C 232.464511 -22.090181 215.424784 -20.064605 197.979348 -16.013452 C 180.533913 -11.9623 160.248523 -1.429303 137.123178 15.990653 C 113.592126 33.410609 95.335275 55.691949 81.946917 82.834671 C 53.141663 137.525231 38.94189 216.522707 38.94189 319.827098 C 38.94189 436.095178 58.010157 524.410304 96.14669 585.177593 Z M 320.908812 596.925936 C 301.02913 618.397045 277.498077 628.930041 249.909947 628.930041 C 221.916109 628.930041 197.979348 618.397045 178.099666 596.925936 C 161.465646 579.50598 150.511536 555.604179 144.831626 524.81542 C 139.557425 494.431775 137.123178 430.423564 137.123178 333.195902 C 137.123178 227.865934 139.557425 158.186109 144.831626 124.966658 C 150.511536 91.747207 162.277062 65.414715 180.939621 45.969182 C 199.602179 26.118535 222.727524 15.990653 249.909947 15.990653 C 276.686662 15.990653 299.406298 26.118535 318.068857 45.969182 C 337.137124 65.81983 349.308358 94.177898 354.176852 129.828041 C 358.639637 165.883299 361.479592 233.537548 361.8853 333.195902 C 361.8853 429.613333 359.451053 493.216429 354.176852 524.005189 C 348.496942 554.793949 337.542832 579.100864 320.908812 596.925936 Z M 320.908812 596.925936 " transform="matrix(0.00962823, 0, 0, -0.00964232, 251.187558, 68.263562)"/>
<path fill-rule="nonzero" fill="rgb(0%, 0%, 0%)" fill-opacity="1" stroke-width="8.798715" stroke-linecap="butt" stroke-linejoin="miter" stroke="rgb(0%, 0%, 0%)" stroke-opacity="0.1704" stroke-miterlimit="4" d="M 55.044528 732.011242 C 55.618198 736.593906 57.626046 740.603737 61.068071 744.040735 C 64.223261 747.191317 69.099462 749.196232 75.123006 750.055482 C 81.72022 750.055482 87.456929 746.618484 92.046295 740.030904 C 94.054143 735.44824 125.319202 653.246705 186.128309 493.999131 C 246.65058 334.751557 277.341968 253.409271 277.915639 249.972273 C 278.776145 246.535275 248.371592 165.192989 186.988815 5.945416 C 125.606038 -153.302158 94.054143 -235.217277 92.046295 -240.086358 C 87.456929 -246.673937 81.72022 -250.110935 75.123006 -250.110935 C 69.673133 -250.110935 65.370602 -248.392436 61.928577 -244.955438 C 58.773388 -241.804857 56.191869 -237.222193 55.044528 -232.066696 C 55.044528 -228.629698 84.87541 -147.573828 145.110845 11.100913 C 205.633116 168.916404 236.037669 248.540191 236.037669 249.972273 C 236.037669 251.404356 205.633116 331.028143 145.110845 489.13005 C 84.87541 647.804791 55.044528 728.574244 55.044528 732.011242 Z M 55.044528 732.011242 " transform="matrix(0.0136184, 0, 0, -0.0136384, 256.683973, 66.217804)"/>
<path fill-rule="nonzero" fill="rgb(0%, 0%, 0%)" fill-opacity="1" stroke-width="8.876268" stroke-linecap="butt" stroke-linejoin="miter" stroke="rgb(0%, 0%, 0%)" stroke-opacity="0.1657" stroke-miterlimit="4" d="M 52.019731 289.120483 C 56.642787 317.075491 74.557129 349.23878 106.051699 385.910941 C 137.257328 422.583102 175.975423 441.219774 221.917043 442.121549 C 245.321265 442.121549 266.7029 436.109719 286.061947 424.08606 C 305.420995 412.0624 319.579104 397.032826 329.114157 378.997337 C 357.141435 421.080145 390.658592 442.121549 429.954569 442.121549 C 454.803496 442.121549 475.896189 434.606762 494.099473 419.877779 C 512.013815 405.449388 521.259927 385.61035 522.12675 360.961848 C 522.12675 341.723993 517.214753 326.093236 507.968641 314.069577 C 498.722529 302.045917 489.765358 294.53113 481.097127 292.126398 C 472.428897 289.421075 464.62749 287.918117 457.981847 287.918117 C 445.268442 287.918117 434.866566 291.525215 427.065159 299.040002 C 418.974811 306.254198 414.929637 315.873125 414.929637 327.896785 C 414.929637 358.557116 431.688215 379.59852 464.916431 391.020997 C 457.692906 399.73815 444.401619 403.94643 425.042572 403.94643 C 416.374342 403.94643 410.017639 403.345247 405.972465 402.142881 C 380.545657 391.321588 362.053432 369.37841 349.91791 336.012755 C 310.044051 188.722927 290.107121 102.753763 290.107121 78.105261 C 290.107121 59.468589 295.308059 45.941972 305.998877 38.126594 C 316.689694 30.010624 328.247334 26.102934 340.960739 26.102934 C 365.809665 26.102934 390.08071 36.924228 414.062814 58.867406 C 438.044917 81.111176 454.225614 107.863818 462.893844 140.027107 C 464.916431 146.64012 466.939018 150.247217 468.961605 151.148992 C 470.984192 151.750175 476.474071 152.351358 485.142302 152.952541 L 488.898535 152.952541 C 499.01147 152.952541 503.923467 150.247217 503.923467 145.137162 C 503.923467 144.235388 503.345585 140.62829 501.90088 134.015277 C 491.210063 96.14075 470.695251 62.474504 440.067504 33.016539 C 409.439757 3.558573 373.611073 -10.869818 332.87039 -10.869818 C 286.350888 -10.869818 251.100085 9.870994 227.117982 51.953802 C 199.668586 10.772769 168.462957 -9.968044 132.923213 -9.968044 L 127.144393 -9.968044 C 94.205118 -9.968044 71.089837 -1.250891 56.931728 15.882824 C 43.06256 33.31713 35.550093 51.653211 34.972211 70.891066 C 34.972211 92.233061 41.328914 109.667367 54.042318 122.893392 C 66.755722 136.420009 81.780655 143.033022 99.117115 143.033022 C 127.722275 143.033022 141.880384 128.905222 141.880384 100.950214 C 141.880384 87.724189 138.124151 76.001121 130.033803 66.081602 C 121.943455 55.861491 114.430989 49.248479 106.918522 45.941972 C 99.694997 42.635466 95.360882 41.132509 93.916177 41.132509 L 91.026767 39.930143 C 91.026767 39.32896 93.049354 38.126594 97.094528 36.022453 C 101.139702 33.918313 106.34064 31.814173 112.986283 29.108849 C 119.631927 26.403526 125.988629 25.20116 132.05639 26.102934 C 156.038494 26.102934 176.553305 41.132509 193.889766 70.891066 C 199.957527 81.712359 207.758934 104.25672 217.005046 139.125333 C 226.251159 173.693353 235.786212 209.764331 245.032324 247.037675 C 254.278436 284.31102 259.768315 306.254198 260.924079 312.867211 C 264.391372 330.9027 266.125018 344.128725 266.125018 351.944104 C 266.125018 370.580776 260.924079 384.107392 251.100085 391.922771 C 240.98715 400.038741 229.718451 403.94643 217.005046 403.94643 C 190.422474 403.94643 165.284606 393.425728 141.880384 372.083733 C 118.765104 350.741738 102.295466 323.387913 93.049354 290.022258 C 91.604649 284.010428 89.871003 280.703922 88.137357 280.102739 C 86.11477 279.200964 80.624891 278.599781 71.95666 277.998598 L 58.087492 277.998598 C 54.042318 281.906288 52.019731 285.813977 52.019731 289.120483 Z M 52.019731 289.120483 " transform="matrix(0.0135192, 0, 0, -0.0129952, 108.390485, 159.354838)"/>
<path fill-rule="nonzero" fill="rgb(0%, 0%, 0%)" fill-opacity="1" stroke-width="12.554833" stroke-linecap="butt" stroke-linejoin="miter" stroke="rgb(0%, 0%, 0%)" stroke-opacity="0.1171" stroke-miterlimit="4" d="M 96.116173 584.96471 C 133.306596 638.960633 184.392343 666.171176 248.964727 666.171176 C 280.842233 666.171176 313.128425 657.242717 345.005931 639.810962 C 376.883437 622.804372 403.039339 592.192511 423.064952 547.975377 C 447.586111 492.703961 459.84669 416.599472 459.84669 320.087075 C 459.84669 216.772042 445.542681 137.6914 416.934662 82.845148 C 403.856711 55.20944 385.465842 32.675708 362.170742 16.094283 C 338.466955 -0.487142 318.441343 -11.11626 300.867846 -14.942743 C 283.703035 -19.19439 266.538224 -21.320214 250.190785 -22.170544 C 232.617288 -22.170544 215.452477 -20.04472 197.87898 -15.793073 C 180.714169 -11.96659 160.279871 -1.337471 136.98477 16.094283 C 113.68967 33.526038 95.298801 55.634604 81.812164 82.845148 C 53.204145 137.6914 38.900136 216.772042 38.900136 320.087075 C 38.900136 436.15705 58.108377 524.166152 96.116173 584.96471 Z M 320.893459 596.869323 C 300.867846 618.12756 277.164059 629.181843 250.190785 629.181843 C 221.991453 629.181843 197.87898 618.12756 177.853368 596.869323 C 161.505929 579.862733 150.471407 555.628343 145.15849 525.016481 C 139.845572 494.40462 136.98477 430.204743 136.98477 332.842017 C 136.98477 227.826326 139.845572 158.524472 145.15849 124.936458 C 150.471407 91.773608 162.323301 65.413393 181.122855 45.855815 C 199.513724 25.873072 222.808825 16.094283 250.190785 16.094283 C 276.755373 16.094283 299.233102 25.873072 318.032657 45.855815 C 337.240897 65.838558 349.501477 93.899431 353.997022 130.038435 C 358.492568 166.177438 361.35337 233.778632 362.170742 332.842017 C 362.170742 429.779579 359.30994 493.129126 353.997022 524.166152 C 348.684105 554.778013 337.649583 579.012404 320.893459 596.869323 Z M 320.893459 596.869323 " transform="matrix(0.00955807, 0, 0, -0.00918762, 116.569596, 161.304118)"/>
<path fill-rule="nonzero" fill="rgb(0%, 0%, 0%)" fill-opacity="1" d="M 116.644531 107.671875 C 116.644531 107.910156 116.597656 108.136719 116.507812 108.359375 C 116.417969 108.578125 116.285156 108.773438 116.117188 108.941406 C 115.949219 109.109375 115.757812 109.238281 115.535156 109.328125 C 115.316406 109.421875 115.085938 109.464844 114.847656 109.464844 C 114.613281 109.464844 114.382812 109.421875 114.164062 109.328125 C 113.941406 109.238281 113.75 109.109375 113.582031 108.941406 C 113.410156 108.773438 113.28125 108.578125 113.191406 108.359375 C 113.101562 108.136719 113.054688 107.910156 113.054688 107.671875 C 113.054688 107.433594 113.101562 107.203125 113.191406 106.984375 C 113.28125 106.765625 113.410156 106.570312 113.582031 106.402344 C 113.75 106.234375 113.941406 106.105469 114.164062 106.011719 C 114.382812 105.921875 114.613281 105.875 114.847656 105.875 C 115.085938 105.875 115.316406 105.921875 115.535156 106.011719 C 115.757812 106.105469 115.949219 106.234375 116.117188 106.402344 C 116.285156 106.570312 116.417969 106.765625 116.507812 106.984375 C 116.597656 107.203125 116.644531 107.433594 116.644531 107.671875 Z M 116.644531 107.671875 "/>
</svg>
